<svg xmlns="http://www.w3.org/2000/svg" viewBox="0 0 99.7 102.01"><defs><style>.cls-1{fill:#fff;}.cls-2{fill:#a36e29;}.cls-3,.cls-7{fill:none;stroke:#414042;stroke-miterlimit:10;stroke-width:2px;}.cls-3{stroke-linecap:round;}.cls-4{fill:#f26866;}.cls-5{fill:#67bd46;}.cls-6{fill:#f8d40c;}.cls-8{fill:#f0a11f;}</style></defs><title>Asset 12</title><g id="Layer_2" data-name="Layer 2"><g id="Apple_candied" data-name="Apple candied"><g id="Apple"><g id="Stick"><rect class="cls-1" x="25.37" y="7.85" width="5.43" height="53.8"/><rect class="cls-1" x="24.52" y="7.85" width="5.43" height="53.8"/><rect class="cls-1" x="23.67" y="7.85" width="5.43" height="53.8" rx="1.42" ry="1.42"/><rect class="cls-2" x="25.37" y="10.25" width="5.43" height="53.8" rx="1.42" ry="1.42"/><rect class="cls-3" x="22.9" y="7.85" width="5.43" height="53.8" rx="1.42" ry="1.42"/></g><g id="Apple-2" data-name="Apple"><path class="cls-1" d="M25,59.25s16.62-11.78,23.61,3.86c4.66,13.4-9,31.72-9,31.72l-29.24,0S-3.22,76.44,1.46,63.14C8.06,47.56,25,59.25,25,59.25Z"/><path class="cls-4" d="M28.4,63.46S45,51.67,52,67.32C56.66,80.71,43,99,43,99L13.8,99S.21,80.64,4.89,67.34C11.49,51.76,28.4,63.46,28.4,63.46Z"/><path class="cls-3" d="M10.9,94.76S-2.7,76.39,2,63.08c6.6-15.58,23.51-3.88,23.51-3.88S42.11,47.42,49.1,63.06c4.66,13.4-9,31.72-9,31.72"/><line class="cls-3" x1="1" y1="94.82" x2="22.25" y2="94.91"/><line class="cls-3" x1="37.48" y1="94.79" x2="50.07" y2="94.79"/><line class="cls-3" x1="26.38" y1="94.79" x2="34.65" y2="94.79"/></g><g id="Leaf"><path class="cls-1" d="M39.43,43.65a1.22,1.22,0,0,1,1.3,1.3c-.42,5.65.29,7.89-4.49,12.67s-7.33,4.71-12.8,4.63A1.21,1.21,0,0,1,22.25,61c.26-4.32-.2-8.12,4.51-12.83S34.07,44,39.43,43.65Z"/><path class="cls-5" d="M41.49,45.63a1.22,1.22,0,0,1,1.3,1.3c-.42,5.65.29,7.89-4.49,12.67S31,64.31,25.49,64.24A1.21,1.21,0,0,1,24.3,63c.26-4.32-.2-8.12,4.51-12.83S36.12,46,41.49,45.63Z"/><path class="cls-3" d="M39.43,43.65a1.22,1.22,0,0,1,1.3,1.3c-.42,5.65.29,7.89-4.49,12.67s-7.33,4.71-12.8,4.63A1.21,1.21,0,0,1,22.25,61c.26-4.32-.2-8.12,4.51-12.83S34.07,44,39.43,43.65Z"/></g></g><path class="cls-1" d="M96.87,37.75a19.33,19.33,0,0,0-9.82-24.32,1.43,1.43,0,0,0-1.95.78L72.47,47.61a1.43,1.43,0,0,0,.94,1.88A19.33,19.33,0,0,0,96.87,37.75Z"/><path class="cls-6" d="M98.44,43.1a19.33,19.33,0,0,0-9.82-24.32,1.43,1.43,0,0,0-1.95.78L74,53A1.43,1.43,0,0,0,75,54.83,19.33,19.33,0,0,0,98.44,43.1Z"/><path class="cls-7" d="M96.87,37.75a19.33,19.33,0,0,0-9.82-24.32,1.43,1.43,0,0,0-1.95.78L72.47,47.61a1.43,1.43,0,0,0,.94,1.88A19.33,19.33,0,0,0,96.87,37.75Z"/><path class="cls-1" d="M55.47,27.73A19.33,19.33,0,0,0,81,37.41L65.14,2.16A19.33,19.33,0,0,0,55.47,27.73Z"/><path class="cls-8" d="M50.57,25.06A19.33,19.33,0,0,0,74.71,35.31a1.43,1.43,0,0,0,.82-1.93L60.85.84a1.43,1.43,0,0,0-2-.66A19.33,19.33,0,0,0,50.57,25.06Z"/><path class="cls-7" d="M55.47,27.73A19.33,19.33,0,0,0,79.6,38a1.43,1.43,0,0,0,.82-1.93L65.75,3.51a1.43,1.43,0,0,0-2-.66A19.33,19.33,0,0,0,55.47,27.73Z"/><g id="Lemon"><circle class="cls-1" cx="80.52" cy="84.54" r="14.77"/><circle class="cls-5" cx="83.35" cy="87.23" r="14.77"/><circle class="cls-7" cx="80.52" cy="84.54" r="14.77"/></g></g></g></svg>