<svg xmlns="http://www.w3.org/2000/svg" viewBox="0 0 83.54 84.36"><defs><style>.cls-1{fill:#fff;}.cls-2{fill:#f26622;}.cls-3,.cls-4{fill:none;stroke:#414042;stroke-miterlimit:10;stroke-width:2px;}.cls-4{stroke-linecap:round;}</style></defs><title>kimchi</title><g id="Layer_2" data-name="Layer 2"><g id="Layer_16" data-name="Layer 16"><g id="Kimchi_3" data-name="Kimchi 3"><path class="cls-1" d="M1.06,70.74l.46-48.36A3.25,3.25,0,0,1,3.06,19.6a3,3,0,0,1,3.08-.14,3.85,3.85,0,0,0,3.07.09,3.45,3.45,0,0,1,3,.1,2.59,2.59,0,0,0,2.35-.08,3.62,3.62,0,0,1,3.49,0,2.5,2.5,0,0,0,2.44,0,2.49,2.49,0,0,1,2.74,0,2.36,2.36,0,0,0,2.34.16,4.78,4.78,0,0,1,4.07,0,2.77,2.77,0,0,0,2.59,0c2.25-1.31,4.73-.48,4.73,1.74,0,1.91,0,46.17,0,51.1,0,1.86-2.38,3.17-4.83,1.73a3.2,3.2,0,0,0-3.43,0,1.55,1.55,0,0,1-2.1,0,2.86,2.86,0,0,0-3.22-.21,2.78,2.78,0,0,1-2.84,0,2.54,2.54,0,0,0-2.57,0,3,3,0,0,1-3.08,0A2.65,2.65,0,0,0,12,74a2.71,2.71,0,0,1-3.16-.15A2.84,2.84,0,0,0,6,73.72l-.28.14A3.31,3.31,0,0,1,1.06,70.74Z"/><path class="cls-2" d="M3.92,75.71l.46-48.36a3.25,3.25,0,0,1,1.54-2.78A3,3,0,0,1,9,24.43a3.85,3.85,0,0,0,3.07.09,3.45,3.45,0,0,1,3,.1,2.59,2.59,0,0,0,2.35-.08,3.62,3.62,0,0,1,3.49,0,2.5,2.5,0,0,0,2.44,0,2.49,2.49,0,0,1,2.74,0,2.36,2.36,0,0,0,2.34.16,4.78,4.78,0,0,1,4.07,0,2.77,2.77,0,0,0,2.59,0c2.25-1.31,4.73-.48,4.73,1.74,0,1.91,0,46.17,0,51.1,0,1.86-2.38,3.17-4.83,1.73a3.2,3.2,0,0,0-3.43,0,1.55,1.55,0,0,1-2.1,0,2.86,2.86,0,0,0-3.22-.21,2.78,2.78,0,0,1-2.84,0,2.54,2.54,0,0,0-2.57,0,3,3,0,0,1-3.08,0,2.65,2.65,0,0,0-2.82,0,2.71,2.71,0,0,1-3.16-.15,2.84,2.84,0,0,0-2.92-.1l-.28.14A3.31,3.31,0,0,1,3.92,75.71Z"/><path class="cls-3" d="M1,71.1l.46-48.36A3.25,3.25,0,0,1,3,20a3,3,0,0,1,3.08-.14,3.85,3.85,0,0,0,3.07.09,3.45,3.45,0,0,1,3,.1,2.59,2.59,0,0,0,2.35-.08,3.62,3.62,0,0,1,3.49,0,2.5,2.5,0,0,0,2.44,0,2.49,2.49,0,0,1,2.74,0,2.36,2.36,0,0,0,2.34.16,4.78,4.78,0,0,1,4.07,0,2.77,2.77,0,0,0,2.59,0c2.25-1.31,4.73-.48,4.73,1.74,0,1.91,0,46.17,0,51.1,0,1.86-2.38,3.17-4.83,1.73a3.2,3.2,0,0,0-3.43,0,1.55,1.55,0,0,1-2.1,0,2.86,2.86,0,0,0-3.22-.21,2.78,2.78,0,0,1-2.84,0,2.54,2.54,0,0,0-2.57,0,3,3,0,0,1-3.08,0,2.65,2.65,0,0,0-2.82,0,2.71,2.71,0,0,1-3.16-.15,2.84,2.84,0,0,0-2.92-.1l-.28.14A3.31,3.31,0,0,1,1,71.1Z"/><line class="cls-4" x1="7.46" y1="20.47" x2="7.46" y2="51.78"/><line class="cls-4" x1="18.99" y1="20.47" x2="18.99" y2="41.59"/><line class="cls-4" x1="24.65" y1="46.4" x2="24.65" y2="72.99"/><line class="cls-4" x1="12.65" y1="35" x2="12.65" y2="47.62"/><line class="cls-4" x1="12.65" y1="57.26" x2="12.65" y2="73.81"/><line class="cls-4" x1="30.85" y1="20.47" x2="30.85" y2="53.97"/></g><g id="Kimchi_3-2" data-name="Kimchi 3"><path class="cls-1" d="M23.68,52.48l.46-48.36a3.25,3.25,0,0,1,1.54-2.78,3,3,0,0,1,3.08-.14,3.85,3.85,0,0,0,3.07.09,3.45,3.45,0,0,1,3,.1,2.59,2.59,0,0,0,2.35-.08,3.62,3.62,0,0,1,3.49,0,2.5,2.5,0,0,0,2.44,0,2.49,2.49,0,0,1,2.74,0,2.36,2.36,0,0,0,2.34.16,4.78,4.78,0,0,1,4.07,0,2.77,2.77,0,0,0,2.59,0C57.05,0,59.53.79,59.53,3c0,1.91,0,46.17,0,51.1,0,1.86-2.38,3.17-4.83,1.73a3.2,3.2,0,0,0-3.43,0,1.55,1.55,0,0,1-2.1,0A2.86,2.86,0,0,0,46,55.65a2.78,2.78,0,0,1-2.84,0,2.54,2.54,0,0,0-2.57,0,3,3,0,0,1-3.08,0,2.65,2.65,0,0,0-2.82,0,2.71,2.71,0,0,1-3.16-.15,2.84,2.84,0,0,0-2.92-.1l-.28.14A3.31,3.31,0,0,1,23.68,52.48Z"/><path class="cls-2" d="M26.53,57.45,27,9.09a3.25,3.25,0,0,1,1.54-2.78,3,3,0,0,1,3.08-.14,3.85,3.85,0,0,0,3.07.09,3.45,3.45,0,0,1,3,.1A2.59,2.59,0,0,0,40,6.28a3.62,3.62,0,0,1,3.49,0,2.5,2.5,0,0,0,2.44,0,2.49,2.49,0,0,1,2.74,0A2.36,2.36,0,0,0,51,6.31a4.78,4.78,0,0,1,4.07,0,2.77,2.77,0,0,0,2.59,0c2.25-1.31,4.73-.48,4.73,1.74,0,1.91,0,46.17,0,51.1,0,1.86-2.38,3.17-4.83,1.73a3.2,3.2,0,0,0-3.43,0,1.55,1.55,0,0,1-2.1,0,2.86,2.86,0,0,0-3.22-.21,2.78,2.78,0,0,1-2.84,0,2.54,2.54,0,0,0-2.57,0,3,3,0,0,1-3.08,0,2.65,2.65,0,0,0-2.82,0,2.71,2.71,0,0,1-3.16-.15,2.84,2.84,0,0,0-2.92-.1l-.28.14A3.31,3.31,0,0,1,26.53,57.45Z"/><path class="cls-3" d="M23.61,52.84l.46-48.36A3.25,3.25,0,0,1,25.61,1.7a3,3,0,0,1,3.08-.14,3.85,3.85,0,0,0,3.07.09,3.45,3.45,0,0,1,3,.1,2.59,2.59,0,0,0,2.35-.08,3.62,3.62,0,0,1,3.49,0,2.5,2.5,0,0,0,2.44,0,2.49,2.49,0,0,1,2.74,0,2.36,2.36,0,0,0,2.34.16,4.78,4.78,0,0,1,4.07,0,2.77,2.77,0,0,0,2.59,0C57,.32,59.47,1.14,59.47,3.36c0,1.91,0,46.17,0,51.1,0,1.86-2.38,3.17-4.83,1.73a3.2,3.2,0,0,0-3.43,0,1.55,1.55,0,0,1-2.1,0A2.86,2.86,0,0,0,45.89,56,2.78,2.78,0,0,1,43,56a2.54,2.54,0,0,0-2.57,0,3,3,0,0,1-3.08,0,2.65,2.65,0,0,0-2.82,0,2.71,2.71,0,0,1-3.16-.15,2.84,2.84,0,0,0-2.92-.1l-.28.14A3.31,3.31,0,0,1,23.61,52.84Z"/><line class="cls-4" x1="30.08" y1="2.22" x2="30.08" y2="33.52"/><line class="cls-4" x1="41.61" y1="2.22" x2="41.61" y2="23.33"/><line class="cls-4" x1="47.26" y1="28.15" x2="47.26" y2="54.74"/><line class="cls-4" x1="35.27" y1="16.74" x2="35.27" y2="29.36"/><line class="cls-4" x1="35.27" y1="39" x2="35.27" y2="55.55"/><line class="cls-4" x1="53.46" y1="2.22" x2="53.46" y2="35.71"/></g><g id="Kimchi_3-3" data-name="Kimchi 3"><path class="cls-1" d="M44.82,75.42l.46-48.36a3.25,3.25,0,0,1,1.54-2.78,3,3,0,0,1,3.08-.14,3.85,3.85,0,0,0,3.07.09,3.45,3.45,0,0,1,3,.1,2.59,2.59,0,0,0,2.35-.08,3.62,3.62,0,0,1,3.49,0,2.5,2.5,0,0,0,2.44,0,2.49,2.49,0,0,1,2.74,0,2.36,2.36,0,0,0,2.34.16,4.78,4.78,0,0,1,4.07,0,2.77,2.77,0,0,0,2.59,0c2.25-1.31,4.73-.48,4.73,1.74,0,1.91,0,46.17,0,51.1,0,1.86-2.38,3.17-4.83,1.73a3.2,3.2,0,0,0-3.43,0,1.55,1.55,0,0,1-2.1,0,2.86,2.86,0,0,0-3.22-.21,2.78,2.78,0,0,1-2.84,0,2.54,2.54,0,0,0-2.57,0,3,3,0,0,1-3.08,0,2.65,2.65,0,0,0-2.82,0,2.71,2.71,0,0,1-3.16-.15,2.84,2.84,0,0,0-2.92-.1l-.28.14A3.31,3.31,0,0,1,44.82,75.42Z"/><path class="cls-2" d="M47.68,80.39,48.13,32a3.25,3.25,0,0,1,1.54-2.78,3,3,0,0,1,3.08-.14,3.85,3.85,0,0,0,3.07.09,3.45,3.45,0,0,1,3,.1,2.59,2.59,0,0,0,2.35-.08,3.62,3.62,0,0,1,3.49,0,2.5,2.5,0,0,0,2.44,0,2.49,2.49,0,0,1,2.74,0,2.36,2.36,0,0,0,2.34.16,4.78,4.78,0,0,1,4.07,0,2.77,2.77,0,0,0,2.59,0c2.25-1.31,4.73-.48,4.73,1.74,0,1.91,0,46.17,0,51.1,0,1.86-2.38,3.17-4.83,1.73a3.2,3.2,0,0,0-3.43,0,1.55,1.55,0,0,1-2.1,0A2.86,2.86,0,0,0,70,83.56a2.78,2.78,0,0,1-2.84,0,2.54,2.54,0,0,0-2.57,0,3,3,0,0,1-3.08,0,2.65,2.65,0,0,0-2.82,0,2.71,2.71,0,0,1-3.16-.15,2.84,2.84,0,0,0-2.92-.1l-.28.14A3.31,3.31,0,0,1,47.68,80.39Z"/><path class="cls-3" d="M44.75,75.78l.46-48.36a3.25,3.25,0,0,1,1.54-2.78,3,3,0,0,1,3.08-.14,3.85,3.85,0,0,0,3.07.09,3.45,3.45,0,0,1,3,.1,2.59,2.59,0,0,0,2.35-.08,3.62,3.62,0,0,1,3.49,0,2.5,2.5,0,0,0,2.44,0,2.49,2.49,0,0,1,2.74,0,2.36,2.36,0,0,0,2.34.16,4.78,4.78,0,0,1,4.07,0,2.77,2.77,0,0,0,2.59,0c2.25-1.31,4.73-.48,4.73,1.74,0,1.91,0,46.17,0,51.1,0,1.86-2.38,3.17-4.83,1.73a3.2,3.2,0,0,0-3.43,0,1.55,1.55,0,0,1-2.1,0A2.86,2.86,0,0,0,67,78.95a2.78,2.78,0,0,1-2.84,0,2.54,2.54,0,0,0-2.57,0,3,3,0,0,1-3.08,0,2.65,2.65,0,0,0-2.82,0,2.71,2.71,0,0,1-3.16-.15,2.84,2.84,0,0,0-2.92-.1l-.28.14A3.31,3.31,0,0,1,44.75,75.78Z"/><line class="cls-4" x1="51.22" y1="25.16" x2="51.22" y2="56.46"/><line class="cls-4" x1="62.75" y1="25.16" x2="62.75" y2="46.27"/><line class="cls-4" x1="68.4" y1="51.09" x2="68.4" y2="77.68"/><line class="cls-4" x1="56.41" y1="39.68" x2="56.41" y2="52.3"/><line class="cls-4" x1="56.41" y1="61.94" x2="56.41" y2="78.49"/><line class="cls-4" x1="74.6" y1="25.16" x2="74.6" y2="58.65"/></g></g></g></svg>