<svg xmlns="http://www.w3.org/2000/svg" viewBox="0 0 110.96 112.73"><defs><style>.cls-1{fill:#fff;}.cls-2{fill:#67bd46;}.cls-3,.cls-4{fill:none;stroke-width:2px;}.cls-3{stroke:#414042;stroke-miterlimit:10;}.cls-4{stroke:#1a1a1a;stroke-linecap:round;stroke-linejoin:round;}.cls-5{fill:#e6e7e8;}.cls-6{fill:#f8d40c;}</style></defs><title>herring_pickles</title><g id="Layer_2" data-name="Layer 2"><g id="Layer_19" data-name="Layer 19"><g id="Zure_bommen" data-name="Zure bommen"><path class="cls-1" d="M5.83,65.09a1.51,1.51,0,0,0,2.13,0,1.49,1.49,0,0,0,.38-.67,10.74,10.74,0,0,0,10.93-2.59l22-22a1.51,1.51,0,0,0,2.13-2.13L61.83,19.28a10.76,10.76,0,0,0,1.66-13,1.5,1.5,0,1,0-1.87-2.35A10.76,10.76,0,0,0,48.52,2.65a1.5,1.5,0,1,0-2.3,1.93L22,28.78a1.51,1.51,0,0,0-2.13,2.13L4.13,46.68a10.75,10.75,0,0,0,0,15.15h0A10.66,10.66,0,0,0,5.7,63.12,1.5,1.5,0,0,0,5.83,65.09Z"/><path class="cls-2" d="M8.39,66.64a1.51,1.51,0,0,0,2.13,0A1.49,1.49,0,0,0,10.9,66a10.74,10.74,0,0,0,10.93-2.59l22-22A1.51,1.51,0,0,0,46,39.22L64.39,20.83A10.76,10.76,0,0,0,66,7.83a1.5,1.5,0,1,0-1.87-2.35A10.76,10.76,0,0,0,51.07,4.21a1.5,1.5,0,1,0-2.3,1.93l-24.2,24.2a1.51,1.51,0,0,0-2.13,2.13L6.68,48.23a10.75,10.75,0,0,0,0,15.15h0a10.66,10.66,0,0,0,1.57,1.29A1.5,1.5,0,0,0,8.39,66.64Z"/><circle class="cls-3" cx="32.16" cy="39.29" r="1.89" transform="translate(-18.36 34.25) rotate(-45)"/><circle class="cls-3" cx="12.75" cy="48.19" r="1.89" transform="translate(-30.34 23.13) rotate(-45)"/><circle class="cls-3" cx="43.46" cy="16.45" r="1.89" transform="translate(1.1 35.55) rotate(-45)"/><path class="cls-4" d="M5.83,65.09a1.51,1.51,0,0,0,2.13,0,1.49,1.49,0,0,0,.38-.67,10.74,10.74,0,0,0,10.93-2.59l22-22a1.51,1.51,0,0,0,2.13-2.13L61.83,19.28a10.76,10.76,0,0,0,1.66-13,1.5,1.5,0,1,0-1.87-2.35A10.76,10.76,0,0,0,48.52,2.65a1.5,1.5,0,1,0-2.3,1.93L22,28.78a1.51,1.51,0,0,0-2.13,2.13L4.13,46.68a10.75,10.75,0,0,0,0,15.15h0A10.66,10.66,0,0,0,5.7,63.12,1.5,1.5,0,0,0,5.83,65.09Z"/><path class="cls-1" d="M95,14.8c-5.39,3.58-11.12,7.83-16.88,12.43a1.42,1.42,0,0,0-.07,2.16L92.5,42.62a1.42,1.42,0,0,0,2.16-.28c4-6.21,7.67-12.36,10.7-18.1a1.42,1.42,0,0,0-.3-1.7l-8.28-7.6A1.42,1.42,0,0,0,95,14.8Z"/><path class="cls-1" d="M54.74,48.5,73.63,65.85a1.42,1.42,0,0,0,2.1-.2c4.07-5.5,8.1-11.25,11.87-17a1.42,1.42,0,0,0-.23-1.83L72.26,33a1.42,1.42,0,0,0-1.86-.06C65.1,37.23,59.8,41.81,54.74,46.4A1.42,1.42,0,0,0,54.74,48.5Z"/><path class="cls-1" d="M32.7,69.6,54,89.18a1.41,1.41,0,0,0,2-.11C60.15,84.29,64.54,78.83,69,73a1.43,1.43,0,0,0-.17-1.91l-19.55-18a1.43,1.43,0,0,0-1.93,0C42,58.13,37,63,32.62,67.57A1.41,1.41,0,0,0,32.7,69.6Z"/><path class="cls-1" d="M11.53,91.47a1.49,1.49,0,0,0,.28,1.73c3.7,3.43,6,5.62,7.74,7.23l8.62,7.92,3.42,3a1.49,1.49,0,0,0,1.75.11c3.53-2.49,8.77-7.71,14.76-14.57a1.43,1.43,0,0,0-.11-2L26.59,75.28a1.43,1.43,0,0,0-2,.08C18.34,82,13.65,87.74,11.53,91.47Z"/><path class="cls-5" d="M100.48,15.11c-5.39,3.58-11.12,7.83-16.88,12.43a1.42,1.42,0,0,0-.07,2.16L97.94,42.94a1.42,1.42,0,0,0,2.16-.28c4-6.21,7.67-12.36,10.7-18.1a1.42,1.42,0,0,0-.3-1.7l-8.28-7.6A1.42,1.42,0,0,0,100.48,15.11Z"/><path class="cls-5" d="M60.18,48.81,79.07,66.16a1.42,1.42,0,0,0,2.1-.2c4.07-5.5,8.1-11.25,11.87-17a1.42,1.42,0,0,0-.23-1.83L77.7,33.29a1.42,1.42,0,0,0-1.86-.06c-5.31,4.32-10.61,8.89-15.67,13.48A1.42,1.42,0,0,0,60.18,48.81Z"/><path class="cls-5" d="M38.14,69.91,59.46,89.49a1.41,1.41,0,0,0,2-.11c4.09-4.77,8.48-10.23,12.89-16a1.43,1.43,0,0,0-.17-1.91l-19.55-18a1.43,1.43,0,0,0-1.93,0c-5.34,5-10.33,9.87-14.67,14.41A1.41,1.41,0,0,0,38.14,69.91Z"/><path class="cls-5" d="M17,91.78a1.49,1.49,0,0,0,.28,1.73c3.7,3.43,6,5.62,7.74,7.23l8.62,7.92,3.42,3a1.49,1.49,0,0,0,1.75.11c3.53-2.49,8.77-7.71,14.76-14.57a1.43,1.43,0,0,0-.11-2L32,75.59a1.43,1.43,0,0,0-2,.08C23.78,82.32,19.09,88.05,17,91.78Z"/><path class="cls-3" d="M95,14.8c-5.39,3.58-11.12,7.83-16.88,12.43a1.42,1.42,0,0,0-.07,2.16L92.5,42.62a1.42,1.42,0,0,0,2.16-.28c4-6.21,7.67-12.36,10.7-18.1a1.42,1.42,0,0,0-.3-1.7l-8.28-7.6A1.42,1.42,0,0,0,95,14.8Z"/><path class="cls-3" d="M54.74,48.5,73.63,65.85a1.42,1.42,0,0,0,2.1-.2c4.07-5.5,8.1-11.25,11.87-17a1.42,1.42,0,0,0-.23-1.83L72.26,33a1.42,1.42,0,0,0-1.86-.06C65.1,37.23,59.8,41.81,54.74,46.4A1.42,1.42,0,0,0,54.74,48.5Z"/><path class="cls-3" d="M32.7,69.6,54,89.18a1.41,1.41,0,0,0,2-.11C60.15,84.29,64.54,78.83,69,73a1.43,1.43,0,0,0-.17-1.91l-19.55-18a1.43,1.43,0,0,0-1.93,0C42,58.13,37,63,32.62,67.57A1.41,1.41,0,0,0,32.7,69.6Z"/><path class="cls-3" d="M11.53,91.47a1.49,1.49,0,0,0,.28,1.73c3.7,3.43,6,5.62,7.74,7.23l8.62,7.92,3.42,3a1.49,1.49,0,0,0,1.75.11c3.53-2.49,8.77-7.71,14.76-14.57a1.43,1.43,0,0,0-.11-2L26.59,75.28a1.43,1.43,0,0,0-2,.08C18.34,82,13.65,87.74,11.53,91.47Z"/><g id="Chopped_onion" data-name="Chopped onion"><rect class="cls-1" x="57.48" y="37.87" width="5.1" height="5.1" rx="1.42" ry="1.42" transform="translate(-12.25 43.99) rotate(-36.78)"/><rect class="cls-1" x="79.38" y="80.76" width="5.1" height="5.1" rx="1.42" ry="1.42" transform="translate(88.89 -33.33) rotate(47.94)"/><rect class="cls-1" x="100.25" y="83.31" width="5.1" height="5.1" rx="1.42" ry="1.42" transform="translate(75.54 -45.28) rotate(38.39)"/><rect class="cls-1" x="4.59" y="24.63" width="5.1" height="5.1" rx="1.42" ry="1.42" transform="translate(18.42 1.44) rotate(38.39)"/><rect class="cls-1" x="60.52" y="79.41" width="5.1" height="5.1" rx="1.42" ry="1.42"/><rect class="cls-1" x="53.57" y="67.22" width="5.1" height="5.1" rx="1.42" ry="1.42"/><rect class="cls-1" x="84.48" y="64.82" width="5.1" height="5.1" rx="1.42" ry="1.42" transform="matrix(0.87, 0.5, -0.5, 0.87, 45.34, -34.49)"/><rect class="cls-1" x="74.32" y="55.18" width="5.1" height="5.1" rx="1.42" ry="1.42"/><rect class="cls-1" x="1.01" y="78.21" width="5.1" height="5.1" rx="1.42" ry="1.42"/><rect class="cls-1" x="62.41" y="102.36" width="5.1" height="5.1" rx="1.42" ry="1.42"/><rect class="cls-1" x="102.8" y="45.63" width="5.1" height="5.1" rx="1.42" ry="1.42"/></g><g id="Background_chopped_onion" data-name="Background chopped onion"><rect class="cls-6" x="58.15" y="40.26" width="5.1" height="5.1" rx="1.42" ry="1.42" transform="translate(-13.55 44.86) rotate(-36.78)"/><rect class="cls-6" x="80.05" y="83.15" width="5.1" height="5.1" rx="1.42" ry="1.42" transform="translate(90.88 -33.04) rotate(47.94)"/><rect class="cls-6" x="100.91" y="85.7" width="5.1" height="5.1" rx="1.42" ry="1.42" transform="translate(77.17 -45.17) rotate(38.39)"/><rect class="cls-6" x="5.26" y="27.01" width="5.1" height="5.1" rx="1.42" ry="1.42" transform="translate(20.05 1.54) rotate(38.39)"/><rect class="cls-6" x="61.19" y="81.8" width="5.1" height="5.1" rx="1.42" ry="1.42"/><rect class="cls-6" x="54.24" y="69.61" width="5.1" height="5.1" rx="1.42" ry="1.42"/><rect class="cls-6" x="85.15" y="67.2" width="5.1" height="5.1" rx="1.42" ry="1.42" transform="translate(46.63 -34.51) rotate(30)"/><rect class="cls-6" x="74.98" y="57.57" width="5.1" height="5.1" rx="1.42" ry="1.42"/><rect class="cls-6" x="1.67" y="80.6" width="5.1" height="5.1" rx="1.42" ry="1.42"/><rect class="cls-6" x="63.08" y="104.75" width="5.1" height="5.1" rx="1.42" ry="1.42"/><rect class="cls-6" x="103.46" y="48.01" width="5.1" height="5.1" rx="1.42" ry="1.42"/></g><g id="Chopped_onion-2" data-name="Chopped onion"><rect class="cls-3" x="57.48" y="37.74" width="5.1" height="5.1" rx="1.42" ry="1.42" transform="translate(-12.17 43.96) rotate(-36.78)"/><rect class="cls-3" x="79.38" y="80.62" width="5.1" height="5.1" rx="1.42" ry="1.42" transform="translate(88.79 -33.37) rotate(47.94)"/><rect class="cls-3" x="100.24" y="83.17" width="5.1" height="5.1" rx="1.42" ry="1.42" transform="translate(75.45 -45.3) rotate(38.39)"/><rect class="cls-3" x="4.59" y="24.49" width="5.1" height="5.1" rx="1.42" ry="1.42" transform="translate(18.33 1.41) rotate(38.39)"/><rect class="cls-3" x="60.52" y="79.27" width="5.1" height="5.1" rx="1.42" ry="1.42"/><rect class="cls-3" x="53.57" y="67.08" width="5.1" height="5.1" rx="1.42" ry="1.42"/><rect class="cls-3" x="84.48" y="64.68" width="5.1" height="5.1" rx="1.42" ry="1.42" transform="translate(45.27 -34.51) rotate(30)"/><rect class="cls-3" x="74.31" y="55.04" width="5.1" height="5.1" rx="1.42" ry="1.42"/><rect class="cls-3" x="1" y="78.07" width="5.1" height="5.1" rx="1.42" ry="1.42"/><rect class="cls-3" x="62.41" y="102.22" width="5.1" height="5.1" rx="1.42" ry="1.42"/><rect class="cls-3" x="102.8" y="45.49" width="5.1" height="5.1" rx="1.42" ry="1.42"/></g></g></g></g></svg>