<svg xmlns="http://www.w3.org/2000/svg" viewBox="0 0 110.8 92.33"><defs><style>.cls-1{fill:#f0a11f;}.cls-2,.cls-6{fill:none;stroke:#414042;stroke-miterlimit:10;stroke-width:2px;}.cls-3{fill:#fff;}.cls-4{fill:#f8d40c;}.cls-5{fill:#a36e29;}.cls-6{stroke-linecap:round;}</style></defs><title>sweet_sour_chicken</title><g id="Layer_2" data-name="Layer 2"><g id="Layer_17" data-name="Layer 17"><circle class="cls-1" cx="54.66" cy="49.94" r="42.39"/><circle class="cls-2" cx="50.31" cy="44.89" r="42.39"/><g id="Lemon"><circle class="cls-3" cx="87.76" cy="20.33" r="19.33"/><circle class="cls-4" cx="91.47" cy="23.86" r="19.33"/><circle class="cls-2" cx="87.76" cy="20.33" r="19.33"/></g><g id="Chicken"><path class="cls-3" d="M74,10.63a.49.49,0,0,1-.59-.65C75.29,5.67,68.75-.7,63.17,3.83a6.33,6.33,0,0,0-1.23,7.48,1.42,1.42,0,0,1-.17,1.47,138.71,138.71,0,0,1-12.28,14c-4,4.22-9.29,5.68-14.66,6.95-2.15.51-4.34.86-6.51,1.33-7.53,1.64-14.77,3.85-20.25,9.78C.53,53-.84,64.15,3.3,71.79c7.6,14,23,16.29,35.66,7.06,5.86-4.28,8.44-10.77,10.3-17.56,2.41-8.79,2.52-18,9.28-25.57C61.09,32.78,66,27,71,22a1.38,1.38,0,0,1,1.51-.32c2.25,1,6.37.59,7.79-1.55C84.23,15.32,78.74,9.46,74,10.63Z"/><path class="cls-5" d="M77.07,14.18a.49.49,0,0,1-.59-.65c1.92-4.31-4.62-10.68-10.21-6.15A6.33,6.33,0,0,0,65,14.86a1.42,1.42,0,0,1-.17,1.47,138.71,138.71,0,0,1-12.28,14c-4,4.22-9.29,5.68-14.66,6.95-2.15.51-4.34.86-6.51,1.33-7.53,1.64-14.77,3.85-20.25,9.78A26.91,26.91,0,0,0,5.72,57.2c-.71,2-3.35,9.82.69,18.15A23.27,23.27,0,0,0,19,86.7c7.2,2.58,15.6,1.14,23-4.29,5.86-4.28,8.44-10.77,10.3-17.56,2.41-8.79,2.52-18,9.28-25.57,2.55-2.94,7.49-8.75,12.48-13.76a1.38,1.38,0,0,1,1.51-.32c2.25,1,6.37.59,7.79-1.55C87.33,18.87,81.84,13,77.07,14.18Z"/><path class="cls-2" d="M74,11.17a.49.49,0,0,1-.59-.65C75.29,6.21,68.75-.16,63.17,4.37a6.33,6.33,0,0,0-1.23,7.48,1.42,1.42,0,0,1-.17,1.47,138.71,138.71,0,0,1-12.28,14c-4,4.22-9.29,5.68-14.66,6.95-2.15.51-4.34.86-6.51,1.33-7.53,1.64-14.77,3.85-20.25,9.78C.53,53.58-.84,64.69,3.3,72.33c7.6,14,23,16.29,35.66,7.06,5.86-4.28,8.44-10.77,10.3-17.56,2.41-8.79,2.52-18,9.28-25.57C61.09,33.32,66,27.51,71,22.5a1.38,1.38,0,0,1,1.51-.32c2.25,1,6.37.59,7.79-1.55C84.23,15.86,78.74,10,74,11.17Z"/><line class="cls-6" x1="52.72" y1="24.03" x2="61.52" y2="32.83"/></g></g></g></svg>