<svg xmlns="http://www.w3.org/2000/svg" viewBox="0 0 85.75 81.47"><defs><style>.cls-1{fill:#fff;}.cls-2{fill:#e0b451;}.cls-3{fill:none;stroke:#414042;stroke-linecap:round;stroke-miterlimit:10;stroke-width:2px;}</style></defs><title>sweet_sour_pork</title><g id="Layer_2" data-name="Layer 2"><g id="Layer_18" data-name="Layer 18"><g id="Big_pork" data-name="Big pork"><path class="cls-1" d="M2.42,20.16H35.19a1.42,1.42,0,0,1,1.42,1.42v51.9a1.42,1.42,0,0,1-1.44,1.42L2.46,74.43A1.42,1.42,0,0,1,1.06,73L1,21.58A1.42,1.42,0,0,1,2.42,20.16Z"/><path class="cls-2" d="M5.86,23.31H38.63A1.42,1.42,0,0,1,40,24.73v51.9a1.42,1.42,0,0,1-1.44,1.42L5.9,77.58a1.42,1.42,0,0,1-1.4-1.42L4.44,24.73A1.42,1.42,0,0,1,5.86,23.31Z"/><line class="cls-3" x1="8.15" y1="20.91" x2="8.15" y2="74.15"/><line class="cls-3" x1="22.33" y1="37.66" x2="22.33" y2="73.43"/><line class="cls-3" x1="15.34" y1="57.7" x2="15.34" y2="74.25"/><line class="cls-3" x1="15.34" y1="20.91" x2="15.34" y2="47.33"/><line class="cls-3" x1="29.54" y1="20.91" x2="29.54" y2="74.64"/><path class="cls-3" d="M2.42,20H35.19a1.42,1.42,0,0,1,1.42,1.42v51.9a1.42,1.42,0,0,1-1.44,1.42L2.46,74.22a1.42,1.42,0,0,1-1.4-1.42L1,21.38A1.42,1.42,0,0,1,2.42,20Z"/></g><g id="Big_pork-2" data-name="Big pork"><path class="cls-1" d="M27.64,1.21H60.42a1.42,1.42,0,0,1,1.42,1.42v51.9a1.42,1.42,0,0,1-1.44,1.42l-32.71-.47a1.42,1.42,0,0,1-1.4-1.42L26.22,2.63A1.42,1.42,0,0,1,27.64,1.21Z"/><path class="cls-2" d="M31.08,4.35H63.85a1.42,1.42,0,0,1,1.42,1.42v51.9a1.42,1.42,0,0,1-1.44,1.42l-32.71-.47a1.42,1.42,0,0,1-1.4-1.42L29.66,5.78A1.42,1.42,0,0,1,31.08,4.35Z"/><line class="cls-3" x1="33.38" y1="1.96" x2="33.38" y2="55.2"/><line class="cls-3" x1="47.56" y1="18.7" x2="47.56" y2="54.48"/><line class="cls-3" x1="40.56" y1="38.74" x2="40.56" y2="55.29"/><line class="cls-3" x1="40.56" y1="1.96" x2="40.56" y2="28.37"/><line class="cls-3" x1="54.76" y1="1.96" x2="54.76" y2="55.69"/><path class="cls-3" d="M27.64,1H60.42a1.42,1.42,0,0,1,1.42,1.42v51.9a1.42,1.42,0,0,1-1.44,1.42l-32.71-.47a1.42,1.42,0,0,1-1.4-1.42L26.22,2.42A1.42,1.42,0,0,1,27.64,1Z"/></g><g id="Big_pork-3" data-name="Big pork"><path class="cls-1" d="M48.12,23.58H80.89A1.42,1.42,0,0,1,82.31,25V76.9a1.42,1.42,0,0,1-1.44,1.42l-32.71-.47a1.42,1.42,0,0,1-1.4-1.42L46.7,25A1.42,1.42,0,0,1,48.12,23.58Z"/><path class="cls-2" d="M51.56,26.73H84.33a1.42,1.42,0,0,1,1.42,1.42v51.9a1.42,1.42,0,0,1-1.44,1.42L51.6,81a1.42,1.42,0,0,1-1.4-1.42l-.06-51.43A1.42,1.42,0,0,1,51.56,26.73Z"/><line class="cls-3" x1="53.85" y1="24.33" x2="53.85" y2="77.57"/><line class="cls-3" x1="68.03" y1="41.08" x2="68.03" y2="76.85"/><line class="cls-3" x1="61.04" y1="61.12" x2="61.04" y2="77.67"/><line class="cls-3" x1="61.04" y1="24.33" x2="61.04" y2="50.75"/><line class="cls-3" x1="75.23" y1="24.33" x2="75.23" y2="78.06"/><path class="cls-3" d="M48.12,23.37H80.89a1.42,1.42,0,0,1,1.42,1.42V76.7a1.42,1.42,0,0,1-1.44,1.42l-32.71-.47a1.42,1.42,0,0,1-1.4-1.42L46.7,24.8A1.42,1.42,0,0,1,48.12,23.37Z"/></g></g></g></svg>