<svg xmlns="http://www.w3.org/2000/svg" viewBox="0 0 87.96 87.93"><defs><style>.cls-1{fill:#fff;}.cls-2{fill:#f26866;}.cls-3{fill:none;stroke:#414042;stroke-miterlimit:10;stroke-width:2px;}.cls-4{fill:#e8e0b9;}.cls-5{fill:#f7a297;}</style></defs><title>zure_zult</title><g id="Layer_2" data-name="Layer 2"><g id="Layer_20" data-name="Layer 20"><g id="Zure_zult" data-name="Zure zult"><g id="Zult_2" data-name="Zult 2"><rect class="cls-1" x="1" y="1" width="53.74" height="42.96" rx="1.42" ry="1.42"/><rect class="cls-2" x="5.24" y="5.65" width="53.74" height="42.96" rx="1.42" ry="1.42"/><rect class="cls-3" x="1" y="1" width="53.74" height="42.96" rx="1.42" ry="1.42"/><rect class="cls-4" x="29.9" y="13.61" width="7.52" height="6.03" rx="1.42" ry="1.42"/><rect class="cls-4" x="8.49" y="32.54" width="7.52" height="6.03" rx="1.42" ry="1.42"/><rect class="cls-3" x="27.87" y="11.44" width="7.52" height="6.03" rx="1.42" ry="1.42"/><rect class="cls-3" x="6.5" y="30.75" width="7.52" height="6.03" rx="1.42" ry="1.42"/><circle class="cls-5" cx="11.19" cy="12.87" r="2.7"/><circle class="cls-3" cx="10.26" cy="11.44" r="2.7"/><circle class="cls-5" cx="47.53" cy="35.55" r="2.7"/><circle class="cls-3" cx="45.86" cy="34.29" r="2.7"/><circle class="cls-5" cx="25.17" cy="28.9" r="2.7"/><circle class="cls-3" cx="23.23" cy="28.17" r="2.7"/></g><g id="Zult_1" data-name="Zult 1"><rect class="cls-1" x="29.99" y="40.32" width="53.74" height="42.96" rx="1.42" ry="1.42"/><rect class="cls-2" x="34.23" y="44.97" width="53.74" height="42.96" rx="1.42" ry="1.42"/><rect class="cls-3" x="29.99" y="40.32" width="53.74" height="42.96" rx="1.42" ry="1.42"/><rect class="cls-4" x="58.89" y="52.92" width="7.52" height="6.03" rx="1.42" ry="1.42"/><rect class="cls-4" x="37.48" y="71.85" width="7.52" height="6.03" rx="1.42" ry="1.42"/><rect class="cls-3" x="56.86" y="50.76" width="7.52" height="6.03" rx="1.42" ry="1.42"/><rect class="cls-3" x="35.49" y="70.07" width="7.52" height="6.03" rx="1.42" ry="1.42"/><circle class="cls-5" cx="40.18" cy="52.19" r="2.7"/><circle class="cls-3" cx="39.25" cy="50.76" r="2.7"/><circle class="cls-5" cx="76.52" cy="74.87" r="2.7"/><circle class="cls-3" cx="74.85" cy="73.61" r="2.7"/><circle class="cls-5" cx="54.16" cy="68.21" r="2.7"/><circle class="cls-3" cx="52.22" cy="67.49" r="2.7"/></g></g></g></g></svg>