<svg xmlns="http://www.w3.org/2000/svg" viewBox="0 0 100.6 99.17"><defs><style>.cls-1{fill:#fff;}.cls-2{fill:#e6e7e8;}.cls-3{fill:none;stroke:#414042;stroke-miterlimit:10;stroke-width:2px;}</style></defs><title>Asset 3</title><g id="Layer_2" data-name="Layer 2"><g id="Layer_19" data-name="Layer 19"><path class="cls-1" d="M84.68,1.23C79.29,4.81,73.56,9.06,67.8,13.66a1.42,1.42,0,0,0-.07,2.16L82.14,29.06a1.42,1.42,0,0,0,2.16-.28c4-6.21,7.67-12.36,10.7-18.1A1.42,1.42,0,0,0,94.7,9l-8.28-7.6A1.42,1.42,0,0,0,84.68,1.23Z"/><path class="cls-1" d="M44.38,34.94,63.27,52.29a1.42,1.42,0,0,0,2.1-.2c4.07-5.5,8.1-11.25,11.87-17A1.42,1.42,0,0,0,77,33.29L61.9,19.42A1.42,1.42,0,0,0,60,19.36c-5.31,4.32-10.61,8.89-15.67,13.48A1.42,1.42,0,0,0,44.38,34.94Z"/><path class="cls-1" d="M22.34,56,43.67,75.62a1.41,1.41,0,0,0,2-.11c4.09-4.77,8.48-10.23,12.89-16a1.43,1.43,0,0,0-.17-1.91l-19.55-18a1.43,1.43,0,0,0-1.93,0C31.6,44.57,26.6,49.47,22.26,54A1.41,1.41,0,0,0,22.34,56Z"/><path class="cls-1" d="M1.16,77.9a1.49,1.49,0,0,0,.28,1.73c3.7,3.43,6,5.62,7.74,7.23l8.62,7.92,3.42,3a1.49,1.49,0,0,0,1.75.11c3.53-2.49,8.77-7.71,14.76-14.57a1.43,1.43,0,0,0-.11-2L16.23,61.72a1.43,1.43,0,0,0-2,.08C8,68.45,3.29,74.17,1.16,77.9Z"/><path class="cls-2" d="M90.12,1.55C84.73,5.13,79,9.38,73.23,14a1.42,1.42,0,0,0-.07,2.16L87.58,29.38a1.42,1.42,0,0,0,2.16-.28c4-6.21,7.67-12.36,10.7-18.1a1.42,1.42,0,0,0-.3-1.7l-8.28-7.6A1.42,1.42,0,0,0,90.12,1.55Z"/><path class="cls-2" d="M49.82,35.25,68.71,52.6a1.42,1.42,0,0,0,2.1-.2c4.07-5.5,8.1-11.25,11.87-17a1.42,1.42,0,0,0-.23-1.83L67.34,19.73a1.42,1.42,0,0,0-1.86-.06C60.18,24,54.88,28.56,49.82,33.15A1.42,1.42,0,0,0,49.82,35.25Z"/><path class="cls-2" d="M27.78,56.35,49.1,75.93a1.41,1.41,0,0,0,2-.11C55.23,71,59.62,65.59,64,59.77a1.43,1.43,0,0,0-.17-1.91l-19.55-18a1.43,1.43,0,0,0-1.93,0C37,44.88,32,49.79,27.7,54.33A1.41,1.41,0,0,0,27.78,56.35Z"/><path class="cls-2" d="M6.6,78.22A1.49,1.49,0,0,0,6.88,80c3.7,3.43,6,5.62,7.74,7.23l8.62,7.92,3.42,3a1.49,1.49,0,0,0,1.75.11c3.53-2.49,8.77-7.71,14.76-14.57a1.43,1.43,0,0,0-.11-2L21.66,62a1.43,1.43,0,0,0-2,.08C13.42,68.76,8.73,74.49,6.6,78.22Z"/><path class="cls-3" d="M84.68,1.23C79.29,4.81,73.56,9.06,67.8,13.66a1.42,1.42,0,0,0-.07,2.16L82.14,29.06a1.42,1.42,0,0,0,2.16-.28c4-6.21,7.67-12.36,10.7-18.1A1.42,1.42,0,0,0,94.7,9l-8.28-7.6A1.42,1.42,0,0,0,84.68,1.23Z"/><path class="cls-3" d="M44.38,34.94,63.27,52.29a1.42,1.42,0,0,0,2.1-.2c4.07-5.5,8.1-11.25,11.87-17A1.42,1.42,0,0,0,77,33.29L61.9,19.42A1.42,1.42,0,0,0,60,19.36c-5.31,4.32-10.61,8.89-15.67,13.48A1.42,1.42,0,0,0,44.38,34.94Z"/><path class="cls-3" d="M22.34,56,43.67,75.62a1.41,1.41,0,0,0,2-.11c4.09-4.77,8.48-10.23,12.89-16a1.43,1.43,0,0,0-.17-1.91l-19.55-18a1.43,1.43,0,0,0-1.93,0C31.6,44.57,26.6,49.47,22.26,54A1.41,1.41,0,0,0,22.34,56Z"/><path class="cls-3" d="M1.16,77.9a1.49,1.49,0,0,0,.28,1.73c3.7,3.43,6,5.62,7.74,7.23l8.62,7.92,3.42,3a1.49,1.49,0,0,0,1.75.11c3.53-2.49,8.77-7.71,14.76-14.57a1.43,1.43,0,0,0-.11-2L16.23,61.72a1.43,1.43,0,0,0-2,.08C8,68.45,3.29,74.17,1.16,77.9Z"/></g></g></svg>