<svg xmlns="http://www.w3.org/2000/svg" viewBox="0 0 108.9 86.82"><defs><style>.cls-1{fill:#f8d40c;}.cls-2{fill:none;stroke:#414042;stroke-miterlimit:10;stroke-width:2px;}</style></defs><title>Asset 4</title><g id="Layer_2" data-name="Layer 2"><g id="Layer_19" data-name="Layer 19"><g id="Background_chopped_onion" data-name="Background chopped onion"><rect class="cls-1" x="58.14" y="17.23" width="5.1" height="5.1" rx="1.42" ry="1.42" transform="translate(0.24 40.28) rotate(-36.78)"/><rect class="cls-1" x="80.04" y="60.12" width="5.1" height="5.1" rx="1.42" ry="1.42" transform="translate(73.78 -40.64) rotate(47.94)"/><rect class="cls-1" x="100.91" y="62.67" width="5.1" height="5.1" rx="1.42" ry="1.42" transform="translate(62.86 -50.15) rotate(38.39)"/><rect class="cls-1" x="5.25" y="3.98" width="5.1" height="5.1" rx="1.42" ry="1.42" transform="matrix(0.78, 0.62, -0.62, 0.78, 5.74, -3.43)"/><rect class="cls-1" x="61.18" y="58.76" width="5.1" height="5.1" rx="1.42" ry="1.42"/><rect class="cls-1" x="54.24" y="46.58" width="5.1" height="5.1" rx="1.42" ry="1.42"/><rect class="cls-1" x="85.15" y="44.17" width="5.1" height="5.1" rx="1.42" ry="1.42" transform="translate(35.11 -37.59) rotate(30)"/><rect class="cls-1" x="74.98" y="34.53" width="5.1" height="5.1" rx="1.42" ry="1.42"/><rect class="cls-1" x="1.67" y="57.56" width="5.1" height="5.1" rx="1.42" ry="1.42"/><rect class="cls-1" x="63.07" y="81.71" width="5.1" height="5.1" rx="1.42" ry="1.42"/><rect class="cls-1" x="103.46" y="24.98" width="5.1" height="5.1" rx="1.42" ry="1.42"/></g><g id="Chopped_onion" data-name="Chopped onion"><rect class="cls-2" x="57.47" y="14.71" width="5.1" height="5.1" rx="1.42" ry="1.42" transform="translate(1.62 39.38) rotate(-36.78)"/><rect class="cls-2" x="79.37" y="57.59" width="5.1" height="5.1" rx="1.42" ry="1.42" transform="translate(71.69 -40.97) rotate(47.94)"/><rect class="cls-2" x="100.24" y="60.14" width="5.1" height="5.1" rx="1.42" ry="1.42" transform="translate(61.15 -50.28) rotate(38.39)"/><rect class="cls-2" x="4.58" y="1.46" width="5.1" height="5.1" rx="1.42" ry="1.42" transform="translate(4.03 -3.56) rotate(38.39)"/><rect class="cls-2" x="60.51" y="56.24" width="5.1" height="5.1" rx="1.42" ry="1.42"/><rect class="cls-2" x="53.57" y="44.05" width="5.1" height="5.1" rx="1.42" ry="1.42"/><rect class="cls-2" x="84.48" y="41.65" width="5.1" height="5.1" rx="1.42" ry="1.42" transform="translate(33.76 -37.59) rotate(30)"/><rect class="cls-2" x="74.31" y="32.01" width="5.1" height="5.1" rx="1.42" ry="1.42"/><rect class="cls-2" x="1" y="55.04" width="5.1" height="5.1" rx="1.42" ry="1.42"/><rect class="cls-2" x="62.4" y="79.19" width="5.1" height="5.1" rx="1.42" ry="1.42"/><rect class="cls-2" x="102.79" y="22.46" width="5.1" height="5.1" rx="1.42" ry="1.42"/></g></g></g></svg>