<svg xmlns="http://www.w3.org/2000/svg" viewBox="0 0 67.51 67.08"><defs><style>.cls-1{fill:#67bd46;}.cls-2,.cls-3{fill:none;stroke-width:2px;}.cls-2{stroke:#414042;stroke-miterlimit:10;}.cls-3{stroke:#1a1a1a;stroke-linecap:round;stroke-linejoin:round;}</style></defs><title>Asset 2</title><g id="Layer_2" data-name="Layer 2"><g id="Layer_19" data-name="Layer 19"><path class="cls-1" d="M8.39,66.64a1.51,1.51,0,0,0,2.13,0A1.49,1.49,0,0,0,10.9,66a10.74,10.74,0,0,0,10.93-2.59l22-22A1.51,1.51,0,0,0,46,39.22L64.39,20.83A10.76,10.76,0,0,0,66,7.83a1.5,1.5,0,1,0-1.87-2.35A10.76,10.76,0,0,0,51.07,4.21a1.5,1.5,0,1,0-2.3,1.93l-24.2,24.2a1.51,1.51,0,0,0-2.13,2.13L6.68,48.23a10.75,10.75,0,0,0,0,15.15h0a10.66,10.66,0,0,0,1.57,1.29A1.5,1.5,0,0,0,8.39,66.64Z"/><circle class="cls-2" cx="32.16" cy="39.29" r="1.89" transform="translate(-18.36 34.25) rotate(-45)"/><circle class="cls-2" cx="12.75" cy="48.19" r="1.89" transform="translate(-30.34 23.13) rotate(-45)"/><circle class="cls-2" cx="43.46" cy="16.45" r="1.89" transform="translate(1.1 35.55) rotate(-45)"/><path class="cls-3" d="M5.83,65.09a1.51,1.51,0,0,0,2.13,0,1.49,1.49,0,0,0,.38-.67,10.74,10.74,0,0,0,10.93-2.59l22-22a1.51,1.51,0,0,0,2.13-2.13L61.83,19.28a10.76,10.76,0,0,0,1.66-13,1.5,1.5,0,1,0-1.87-2.35A10.76,10.76,0,0,0,48.52,2.65a1.5,1.5,0,1,0-2.3,1.93L22,28.78a1.51,1.51,0,0,0-2.13,2.13L4.13,46.68a10.75,10.75,0,0,0,0,15.15h0A10.66,10.66,0,0,0,5.7,63.12,1.5,1.5,0,0,0,5.83,65.09Z"/></g></g></svg>