<svg xmlns="http://www.w3.org/2000/svg" viewBox="0 0 66.69 77.25"><defs><style>.cls-1{fill:#3f6eb6;}.cls-2{fill:none;stroke-miterlimit:10;stroke-width:2px;}.cls-2,.cls-3{stroke:#414042;}.cls-3{fill:#fff;stroke-linecap:round;stroke-linejoin:round;stroke-width:1.5px;}</style></defs><title>Asset 5</title><g id="Layer_2" data-name="Layer 2"><g id="Layer_8" data-name="Layer 8"><path class="cls-1" d="M12.54,41.79l5.4,34.27a1.42,1.42,0,0,0,1.4,1.2H54.69a1.42,1.42,0,0,0,1.39-1.15l6.73-34.27a1.42,1.42,0,0,0-1.39-1.69H13.95A1.42,1.42,0,0,0,12.54,41.79Z"/><path class="cls-2" d="M64.27,1H2.42A1.42,1.42,0,0,0,1,2.65L12.34,70.92a1.42,1.42,0,0,0,1.4,1.19H51.19A1.42,1.42,0,0,0,52.59,71L65.66,2.69A1.42,1.42,0,0,0,64.27,1Z"/><line class="cls-3" x1="19.46" y1="35.09" x2="7.13" y2="35.09"/><line class="cls-3" x1="23.3" y1="35.09" x2="32.02" y2="35.09"/><line class="cls-3" x1="36.68" y1="35.09" x2="35.2" y2="35.09"/><line class="cls-3" x1="56.43" y1="35.09" x2="42.72" y2="35.09"/></g></g></svg>