<svg xmlns="http://www.w3.org/2000/svg" viewBox="0 0 675.39 428.43"><defs><style>.cls-1{fill:#f1f2f2;}</style></defs><title>bg</title><g id="Layer_2" data-name="Layer 2"><g id="Layer_16" data-name="Layer 16"><path class="cls-1" d="M34,353.8a2.42,2.42,0,0,0,2.42-2.42v-3.19A2.42,2.42,0,0,0,34,345.77H29.29a2.42,2.42,0,0,0-2.42,2.42v3.19a2.42,2.42,0,0,0,2.42,2.42Zm-5.1-2.42v-3.19a.42.42,0,0,1,.42-.42H34a.42.42,0,0,1,.42.42v3.19a.42.42,0,0,1-.42.42H29.29A.42.42,0,0,1,28.87,351.38Z"/><path class="cls-1" d="M12.6,365.08H7.92A2.42,2.42,0,0,0,5.5,367.5v3.19a2.42,2.42,0,0,0,2.42,2.42H12.6A2.42,2.42,0,0,0,15,370.69V367.5A2.42,2.42,0,0,0,12.6,365.08Zm.42,5.61a.42.42,0,0,1-.42.42H7.92a.42.42,0,0,1-.42-.42V367.5a.42.42,0,0,1,.42-.42H12.6a.42.42,0,0,1,.42.42Z"/><path class="cls-1" d="M10.26,350.47a3.7,3.7,0,1,0-3.7-3.7A3.7,3.7,0,0,0,10.26,350.47Zm0-5.4a1.7,1.7,0,1,1-1.7,1.7A1.7,1.7,0,0,1,10.26,345.07Z"/><path class="cls-1" d="M45.86,373.32a3.7,3.7,0,1,0-3.7-3.7A3.7,3.7,0,0,0,45.86,373.32Zm0-5.4a1.7,1.7,0,1,1-1.7,1.7A1.7,1.7,0,0,1,45.86,367.92Z"/><path class="cls-1" d="M23.23,359.8a3.7,3.7,0,1,0,3.7,3.7A3.7,3.7,0,0,0,23.23,359.8Zm0,5.4a1.7,1.7,0,1,1,1.7-1.7A1.7,1.7,0,0,1,23.23,365.2Z"/><path class="cls-1" d="M82.31,374.65H55.74v-36.9a2.42,2.42,0,0,0-2.42-2.42H2.42A2.42,2.42,0,0,0,0,337.75v40.12a2.42,2.42,0,0,0,2.42,2.42H29v36.9a2.42,2.42,0,0,0,2.42,2.42h50.9a2.42,2.42,0,0,0,2.42-2.42V377.07A2.42,2.42,0,0,0,82.31,374.65ZM2.42,378.29a.42.42,0,0,1-.42-.42V337.75a.42.42,0,0,1,.42-.42h50.9a.42.42,0,0,1,.42.42v36.9H31.41A2.42,2.42,0,0,0,29,377.07v1.22Zm80.31,38.9a.42.42,0,0,1-.42.42H31.41a.42.42,0,0,1-.42-.42V377.07a.42.42,0,0,1,.42-.42h50.9a.42.42,0,0,1,.42.42Z"/><path class="cls-1" d="M63,385.09H58.28a2.42,2.42,0,0,0-2.42,2.42v3.19a2.42,2.42,0,0,0,2.42,2.42H63a2.42,2.42,0,0,0,2.42-2.42v-3.19A2.42,2.42,0,0,0,63,385.09Zm.42,5.61a.42.42,0,0,1-.42.42H58.28a.42.42,0,0,1-.42-.42v-3.19a.42.42,0,0,1,.42-.42H63a.42.42,0,0,1,.42.42Z"/><path class="cls-1" d="M41.59,404.4H36.91a2.42,2.42,0,0,0-2.42,2.42V410a2.42,2.42,0,0,0,2.42,2.42h4.68A2.42,2.42,0,0,0,44,410v-3.19A2.42,2.42,0,0,0,41.59,404.4ZM42,410a.42.42,0,0,1-.42.42H36.91a.42.42,0,0,1-.42-.42v-3.19a.42.42,0,0,1,.42-.42h4.68a.42.42,0,0,1,.42.42Z"/><path class="cls-1" d="M39.25,389.79a3.7,3.7,0,1,0-3.7-3.7A3.7,3.7,0,0,0,39.25,389.79Zm0-5.4a1.7,1.7,0,1,1-1.7,1.7A1.7,1.7,0,0,1,39.25,384.39Z"/><path class="cls-1" d="M74.85,405.24a3.7,3.7,0,1,0,3.7,3.7A3.7,3.7,0,0,0,74.85,405.24Zm0,5.4a1.7,1.7,0,1,1,1.7-1.7A1.7,1.7,0,0,1,74.85,410.64Z"/><path class="cls-1" d="M52.22,399.12a3.7,3.7,0,1,0,3.7,3.7A3.7,3.7,0,0,0,52.22,399.12Zm0,5.4a1.7,1.7,0,1,1,1.7-1.7A1.7,1.7,0,0,1,52.22,404.52Z"/><path class="cls-1" d="M554.27,366H535.36V346.14a2.42,2.42,0,0,0-2.42-2.42H500.16a2.42,2.42,0,0,0-2.42,2.42l0,16.59H474.94a2.41,2.41,0,0,0-2.42,2.38l.06,51.42A2.43,2.43,0,0,0,475,419l32.75.52a2.42,2.42,0,0,0,2.42-2.42V400.14l9,.13,0,19.6a2.43,2.43,0,0,0,2.39,2.42l27,.39.11,0,.1,0,5.57.08a2.42,2.42,0,0,0,2.42-2.42V368.43A2.42,2.42,0,0,0,554.27,366Zm-12.86,17.71a1,1,0,0,0-1,1v35.77s0,0,0,.07l-5-.07V404.76a1,1,0,0,0-2,0v15.7l-5.19-.07V399.67a1,1,0,0,0,0-.25V368h5.14v26.38a1,1,0,0,0,2,0V368h12.19v52.65l-5.22-.07a1,1,0,0,0,0-.1V384.72A1,1,0,0,0,541.41,383.72Zm-28.33-2.24a1,1,0,0,0-1,1v15.69l-5.18-.07V345.72h5.18V372.1a1,1,0,0,0,2,0V345.72h12.2V366H521.5a2.4,2.4,0,0,0-.42,0v-3.61a1,1,0,1,0-2,0v35.78s0,0,0,.05l-5-.07V382.47A1,1,0,0,0,513.08,381.47Zm-18.23-1.08a1,1,0,0,0-1,1v35.77s0,.06,0,.09l-5-.08V401.43a1,1,0,1,0-2,0v15.71l-5.19-.08V364.73h5.19v26.33a1,1,0,1,0,2,0V364.73h8.91l0,32.85A2.43,2.43,0,0,0,500.2,400h.87v17.35l-5.23-.08a.92.92,0,0,0,0-.12V381.39A1,1,0,0,0,494.85,380.39Zm38.51-34.25V366h-5.08V345.72h4.66A.42.42,0,0,1,533.36,346.14Zm-33.62,0a.42.42,0,0,1,.42-.42h4.74v52.34l-4.68-.07a.42.42,0,0,1-.41-.42v-.5l0-34.34h0Zm-25.16,70.39-.06-51.39a.42.42,0,0,1,.42-.41h4.73V417L475,417A.42.42,0,0,1,474.58,416.53Zm33.55.52a.42.42,0,0,1-.12.3.42.42,0,0,1-.3.12l-4.65-.07V400l5.07.07Zm13,2.81,0-28.72,0-22.72a.42.42,0,0,1,.41-.42h4.74v52.35l-4.67-.07A.42.42,0,0,1,521.14,419.87Zm33.55.47a.42.42,0,0,1-.42.42l-4.66-.07V368h4.66a.42.42,0,0,1,.42.42Z"/><path class="cls-1" d="M186.78,272.2l-15-3.34V221.59c11.71-.57,24.16-11.95,24.65-36.18a2.4,2.4,0,0,0-.68-1.72A2.43,2.43,0,0,0,194,183H147.58a2.42,2.42,0,0,0-2.42,2.42v0c.52,24.14,12.93,35.52,24.65,36.17v47.26l-15,3.34a2,2,0,0,0-1,3.55,2,2,0,0,0,1.41.43H186.5a2,2,0,0,0,2-1.79A2,2,0,0,0,186.78,272.2ZM147.93,194h10.55a1,1,0,1,0,0-2H147.64a62.69,62.69,0,0,1-.48-6.61.42.42,0,0,1,.42-.42H194a.42.42,0,0,1,.41.42A62.89,62.89,0,0,1,194,192H181.75a1,1,0,1,0,0,2h11.95c-2.87,17.53-13.23,25.62-22.81,25.63h0C161.26,219.62,150.84,211.53,147.93,194Zm38.45,80.19H155.12l.11,0,15.58-3.48-.08-.37h0l.08.37,15.58,3.48.11,0Z"/><path class="cls-1" d="M172,193a1,1,0,0,0-1-1h-8.71a1,1,0,0,0,0,2H171A1,1,0,0,0,172,193Z"/><path class="cls-1" d="M174.23,194h1.49a1,1,0,0,0,0-2h-1.49a1,1,0,0,0,0,2Z"/><path class="cls-1" d="M326.65,325.17a1,1,0,0,0-.66.15l-24.66,16a1.86,1.86,0,0,0-.83,1.41l-1,13.62h-19.3A20.38,20.38,0,0,0,260,337h0a20.37,20.37,0,0,0,0,40.74h.05c.42,0,.85,0,1.28,0v0h0l8.33,49.18a1.85,1.85,0,0,0,1.83,1.54h36.57a1.85,1.85,0,0,0,1.82-1.53l12.11-68.35a1.85,1.85,0,0,0-1.82-2.18h-14l.68-10.67,23.57-15a1,1,0,0,0,.46-.82A4.66,4.66,0,0,0,326.65,325.17Zm-66.59,33.7a.42.42,0,0,1,.09-.33.42.42,0,0,1,.32-.15h17.79a18.3,18.3,0,0,1-15.4,17.1Zm-.18,16.85a18.37,18.37,0,0,1,0-36.74h0a18.39,18.39,0,0,1,18.3,17.41H259.8a1.85,1.85,0,0,0-1.83,2.17l.11.64s0,0,0,0l2.79,16.48Zm47.94,50.71H271.49l-5.95-35.11h11.83a1,1,0,0,0,0-2H265.21l-2-11.88a20.26,20.26,0,0,0,17-19H299.4l-3.46,49a1,1,0,0,0,.4.87,5.67,5.67,0,0,0,3.21,1.08,4.11,4.11,0,0,0,2.9-1.17,1,1,0,0,0,.31-.64c.06-.71.5-7.41,1.07-16.16H314Zm-7.17-35.11h1.16c-.5,7.76-.9,13.87-1,15.57a2.71,2.71,0,0,1-2.82,0l3.43-48.49h2.53c-.57,9-1.35,21-2,30.94h-1.29a1,1,0,0,0,0,2Zm19.22-32.94-5.48,30.95H303.94c.64-9.94,1.42-22,2-30.94ZM305.6,344.07a1.86,1.86,0,0,0-.85,1.44l-.7,10.87h-2.51l.95-13.41,24.25-15.76a2.66,2.66,0,0,1,2,2.17Z"/><path class="cls-1" d="M289.95,389.32h-8.72a1,1,0,0,0,0,2h8.72a1,1,0,0,0,0-2Z"/><path class="cls-1" d="M294.61,389.32h-1.48a1,1,0,0,0,0,2h1.48a1,1,0,0,0,0-2Z"/><path class="cls-1" d="M366.76,219a1,1,0,0,0,2,0V191.65l0-.06a2.14,2.14,0,0,0-.69-1.18,2.11,2.11,0,0,0-1.5-.54H354.36a1.74,1.74,0,0,0-1.77,1.66l.08,14.35a1,1,0,0,0,1,1h0a1,1,0,0,0,1-1l-.08-14h12a.18.18,0,0,1,.17.14Z"/><path class="cls-1" d="M353.7,208.94h0a1,1,0,0,0-1,1l-.11,19.25a1,1,0,0,0,1,1h0a1,1,0,0,0,1-1l.11-19.25A1,1,0,0,0,353.7,208.94Z"/><path class="cls-1" d="M384.9,204.22a1,1,0,0,0,1-1V191.54a1.63,1.63,0,0,0-1.75-1.54l-11.72.07a1.64,1.64,0,0,0-1.71,1.54V213a1,1,0,0,0,2,0V192.06L383.9,192v11.22A1,1,0,0,0,384.9,204.22Z"/><path class="cls-1" d="M385.12,207.06a1,1,0,0,0-1,1v16.86a1,1,0,1,0,2,0V208.06A1,1,0,0,0,385.12,207.06Z"/><path class="cls-1" d="M385.12,229.28a1,1,0,0,0-1,1v2.35a1,1,0,1,0,2,0v-2.35A1,1,0,0,0,385.12,229.28Z"/><path class="cls-1" d="M367.82,222a1,1,0,0,0-1,1l0,4.49a1,1,0,0,0,1,1h0a1,1,0,0,0,1-1l0-4.49A1,1,0,0,0,367.82,222Z"/><path class="cls-1" d="M368.27,230.07a.56.56,0,0,0-.17-.09.59.59,0,0,0-.19-.06,1,1,0,0,0-.58.06.87.87,0,0,0-.32.22.44.44,0,0,0-.12.15,1,1,0,0,0-.1.17,1.07,1.07,0,0,0,0,.19.63.63,0,0,0,0,.19,1,1,0,0,0,.29.71,1.21,1.21,0,0,0,.32.22,1.07,1.07,0,0,0,.39.07.61.61,0,0,0,.19,0l.19-.05a1,1,0,0,0,.17-.1.63.63,0,0,0,.15-.12,1,1,0,0,0,.3-.71,1,1,0,0,0-.3-.7A.66.66,0,0,0,368.27,230.07Z"/><path class="cls-1" d="M389,213.52a1,1,0,0,0-1,1v2.35a1,1,0,1,0,2,0v-2.35A1,1,0,0,0,389,213.52Z"/><path class="cls-1" d="M389,220.21a1,1,0,0,0-1,1v16.87a1,1,0,0,0,2,0V221.21A1,1,0,0,0,389,220.21Z"/><path class="cls-1" d="M414.15,214.8l-7.47-5.55V187.67a2.22,2.22,0,0,0-2.23-2.22H351.17a2.22,2.22,0,0,0-2.22,2.22v72.41a2.24,2.24,0,0,0,.65,1.57,2.2,2.2,0,0,0,1.57.66h53.28a2.22,2.22,0,0,0,2.22-2.22V245l7.4-5.71.11-.1a2.21,2.21,0,0,0,.62-1.54V216.38A2.24,2.24,0,0,0,414.15,214.8Zm-7.47,1.79,2.82,1.56a.24.24,0,0,1,0,.09v18.1a.23.23,0,0,1,0,.09L406.68,238Zm-2,43.5a.22.22,0,0,1-.22.22H351.18a.22.22,0,0,1-.15-.06.25.25,0,0,1-.07-.17v-72.4a.22.22,0,0,1,.22-.22h53.29a.22.22,0,0,1,.22.22v25.52h0v46.9Zm8.13-22.48a.22.22,0,0,1,0,.12l-6.09,4.69v-2.15l4-2.19.22-.17a2.24,2.24,0,0,0,.65-1.58v-18.1a2.24,2.24,0,0,0-.65-1.58l-4.19-2.36v-2.56l6.08,4.51a.23.23,0,0,1,0,.13Z"/><path class="cls-1" d="M401.38,189.84l-11.72.07a1.64,1.64,0,0,0-1.71,1.54v18.38a1,1,0,1,0,2,0V191.91l11.17-.07v21.24a1,1,0,0,0,2,0v-21.7A1.63,1.63,0,0,0,401.38,189.84Z"/><path class="cls-1" d="M99.87,113.59a4.64,4.64,0,0,0-4.59.25,1.79,1.79,0,0,1-1.7,0,5.77,5.77,0,0,0-4.93,0,1.37,1.37,0,0,1-1.35-.1,3.45,3.45,0,0,0-3.78,0,1.51,1.51,0,0,1-1.47,0,4.62,4.62,0,0,0-1.76-.55V93.31a3.13,3.13,0,0,0-1.65-2.86,4.5,4.5,0,0,0-4.53.47,1.8,1.8,0,0,1-1.66,0,5.77,5.77,0,0,0-4.93,0,1.36,1.36,0,0,1-1.35-.1,3.45,3.45,0,0,0-3.78,0,1.51,1.51,0,0,1-1.47,0,4.6,4.6,0,0,0-4.46,0,1.57,1.57,0,0,1-1.4.07,4.4,4.4,0,0,0-3.84-.14,2.83,2.83,0,0,1-2.22,0,4,4,0,0,0-4.08.17A4.27,4.27,0,0,0,43,93.71a4.15,4.15,0,0,0-.14,1.08l-.13,13.86a3.41,3.41,0,0,0-2.94.36,1.51,1.51,0,0,1-1.47,0,4.6,4.6,0,0,0-4.46,0,1.58,1.58,0,0,1-1.4.07,4.4,4.4,0,0,0-3.84-.14,2.84,2.84,0,0,1-2.22,0,4,4,0,0,0-4.08.17,5.19,5.19,0,0,0-2.07,4l-.46,48.33a4.31,4.31,0,0,0,6.1,4.22l.32-.16a1.82,1.82,0,0,1,1.81,0,3.7,3.7,0,0,0,4.31.21,1.67,1.67,0,0,1,1.77,0,4,4,0,0,0,4.1,0,1.54,1.54,0,0,1,1.55,0,3.77,3.77,0,0,0,3.86,0,1.83,1.83,0,0,1,2,.08,2.57,2.57,0,0,0,3.37.07,2.22,2.22,0,0,1,2.33.05,5.2,5.2,0,0,0,2.62.75,4,4,0,0,0,2-.52,3.26,3.26,0,0,0,1.68-2.55,3.12,3.12,0,0,0,.08-.67V147.62a4,4,0,0,0,3-.45,1.53,1.53,0,0,1,1.54,0,3.75,3.75,0,0,0,1.45.5l-.18,18.41h0a4.31,4.31,0,0,0,6,4l.32-.16a1.82,1.82,0,0,1,1.81,0,3.7,3.7,0,0,0,4.31.21,1.67,1.67,0,0,1,1.77,0,4,4,0,0,0,4.1,0,1.54,1.54,0,0,1,1.55,0,3.77,3.77,0,0,0,3.83,0,1.86,1.86,0,0,1,2.13.25,2.57,2.57,0,0,0,3.37.07,2.23,2.23,0,0,1,2.33.05,5.2,5.2,0,0,0,2.62.75,4,4,0,0,0,2-.52,3.28,3.28,0,0,0,1.67-2.43,3.12,3.12,0,0,0,.1-.76v-51.1A3.21,3.21,0,0,0,99.87,113.59ZM75,93l.09-.06a2.59,2.59,0,0,1,2.52-.42,1.17,1.17,0,0,1,.61,1.12V113.4a4.69,4.69,0,0,0-.63.28,1.58,1.58,0,0,1-1.4.07,4.47,4.47,0,0,0-2-.51V93.33A3.76,3.76,0,0,0,75,93ZM42.63,163.54a1.78,1.78,0,0,1-1.82,0,3.54,3.54,0,0,0-3.59,0,2,2,0,0,1-2,0,3.63,3.63,0,0,0-1.81-.63V147.57a1,1,0,1,0-2,0v15.8l-.19.1a1.71,1.71,0,0,1-2-.09l-.08-.06a3.85,3.85,0,0,0-3.83-.18l-.24.12a2.31,2.31,0,0,1-3.25-2.18l.46-48.39a2.14,2.14,0,0,1,0-.22,2.27,2.27,0,0,1,1-1.32,2,2,0,0,1,2.1-.07,4.8,4.8,0,0,0,.81.28v30.73a1,1,0,0,0,2,0V111.46a5,5,0,0,0,1.09-.29,2.46,2.46,0,0,1,2.17.09,3.6,3.6,0,0,0,3.26-.11,2.61,2.61,0,0,1,2.52,0,3.41,3.41,0,0,0,.49.22V131.9a1,1,0,0,0,2,0V111.49a3.7,3.7,0,0,0,1-.38,1.48,1.48,0,0,1,1.63,0,2.71,2.71,0,0,0,.3.15l-.3,31.88h0a4.29,4.29,0,0,0,.32,1.61,4.23,4.23,0,0,0,.72,1.15V163.2A3.9,3.9,0,0,0,42.63,163.54ZM55,164a2.62,2.62,0,0,1-2.6-.2,4.22,4.22,0,0,0-4.5,0l-.14.11a.58.58,0,0,1-.81-.05,3.87,3.87,0,0,0-1.57-.74V147.22a4.39,4.39,0,0,0,3-.13l.32-.16a1.82,1.82,0,0,1,1.81,0,3.7,3.7,0,0,0,4.31.21,1.63,1.63,0,0,1,.84-.24v16.32A1.34,1.34,0,0,1,55,164Zm9-47.14a4.12,4.12,0,0,0-.1.9l-.26,27.51a1.72,1.72,0,0,1-.28-.13,3.54,3.54,0,0,0-3.59,0,2,2,0,0,1-2,0,3.63,3.63,0,0,0-1.77-.54V129.31a1,1,0,0,0-2,0v15.75l-.12.07a1.75,1.75,0,0,1-2.07-.15,3.81,3.81,0,0,0-3.91-.16l-.24.12a2.31,2.31,0,0,1-3.24-2.14l.46-48.38a2.18,2.18,0,0,1,0-.3,2.29,2.29,0,0,1,1-1.28,2,2,0,0,1,2.1-.07,4.78,4.78,0,0,0,.82.28v30.77a1,1,0,1,0,2,0V93.16a5,5,0,0,0,1.09-.29A2.47,2.47,0,0,1,54.1,93a3.6,3.6,0,0,0,3.26-.11,2.6,2.6,0,0,1,2.52,0,3.41,3.41,0,0,0,.5.22v20.56a1,1,0,0,0,2,0V93.19a3.71,3.71,0,0,0,1-.38,1.49,1.49,0,0,1,1.64,0,3.37,3.37,0,0,0,3.32.23,3.75,3.75,0,0,1,3.18,0,3.76,3.76,0,0,0,.74.28v20.35a2.82,2.82,0,0,1-2.09-.08,4,4,0,0,0-4.08.17A4.28,4.28,0,0,0,64.08,116.82Zm35.34,51.1v0a1.35,1.35,0,0,1-.62.71,2.62,2.62,0,0,1-2.6-.2,4.22,4.22,0,0,0-4.5,0l-.14.11a.58.58,0,0,1-.81-.05,3.87,3.87,0,0,0-1.58-.74V141.4a1,1,0,0,0-2,0v26.48a3.89,3.89,0,0,0-.77.34,1.78,1.78,0,0,1-1.82,0,3.55,3.55,0,0,0-3.59,0,2,2,0,0,1-2,0,3.63,3.63,0,0,0-1.77-.54V152.25a1,1,0,0,0-2,0v15.92l-.12.07a1.75,1.75,0,0,1-2.07-.15,3.81,3.81,0,0,0-3.91-.15l-.24.12a2.31,2.31,0,0,1-3.05-1.17,2.32,2.32,0,0,1-.19-1.09L66,117.37a2.17,2.17,0,0,1,0-.3,2.29,2.29,0,0,1,1-1.28,2,2,0,0,1,2.1-.07A4.78,4.78,0,0,0,70,116v30.77a1,1,0,0,0,2,0V116.1a5,5,0,0,0,1.08-.29,2.47,2.47,0,0,1,2.17.09,3.6,3.6,0,0,0,3.26-.11,2.6,2.6,0,0,1,2.52,0,3.41,3.41,0,0,0,.5.22v20.56a1,1,0,0,0,2,0V116.13a3.71,3.71,0,0,0,1-.38,1.48,1.48,0,0,1,1.63,0,3.37,3.37,0,0,0,3.32.23,3.75,3.75,0,0,1,3.18,0,3.73,3.73,0,0,0,.74.28V149a1,1,0,0,0,2,0v-32.7a3.93,3.93,0,0,0,.82-.32,2.73,2.73,0,0,1,2.62-.26,1.21,1.21,0,0,1,.61,1.14Z"/><path class="cls-1" d="M76.17,129a1,1,0,0,0-1,1v12.62a1,1,0,0,0,2,0V130A1,1,0,0,0,76.17,129Z"/><g id="Lemon"><path class="cls-1" d="M250.72,98.64a15.77,15.77,0,1,1,15.77-15.77A15.79,15.79,0,0,1,250.72,98.64Zm0-29.54a13.77,13.77,0,1,0,13.77,13.77A13.79,13.79,0,0,0,250.72,69.1Z"/><path class="cls-1" d="M250.72,98.64a15.77,15.77,0,1,1,15.77-15.77A15.79,15.79,0,0,1,250.72,98.64Zm0-29.54a13.77,13.77,0,1,0,13.77,13.77A13.79,13.79,0,0,0,250.72,69.1Z"/></g><path class="cls-1" d="M257.68,10.86A2.43,2.43,0,0,0,254.45,12l-.08.19-6.41,17L235.47,1.43A2.43,2.43,0,0,0,232.24.22l-.17.09A20.34,20.34,0,0,0,242,38.44a20.13,20.13,0,0,0,2.52-.18l-2.77,7.32a2.43,2.43,0,0,0,1.41,3.13l.18.06a20.06,20.06,0,0,0,5.58.79,20.33,20.33,0,0,0,8.76-38.72Zm-32.5,14.79h0A18.43,18.43,0,0,1,233.07,2a.42.42,0,0,1,.18,0,.43.43,0,0,1,.15,0,.42.42,0,0,1,.24.22l14.68,32.59a.43.43,0,0,1-.26.55A18.42,18.42,0,0,1,225.19,25.65Zm41,10.08h0a18.43,18.43,0,0,1-22.28,11.12.43.43,0,0,1-.25-.56l3.2-8.45a20.06,20.06,0,0,0,1.94-.57,2.44,2.44,0,0,0,1.46-3.12l-.07-.16-1-2.26,7.13-18.86a.43.43,0,0,1,.39-.24.43.43,0,0,1,.19,0A18.42,18.42,0,0,1,266.14,35.73Z"/><path class="cls-1" d="M220.76,91.14h-8.38c3.6-5.6,11.13-19.24,7.33-30.16-2-4.44-4.91-7.22-8.71-8.26l-.64-.15c1.2-2.23,1.3-4.21,1.43-6.87,0-.72.07-1.49.13-2.34a2.1,2.1,0,0,0,0-.3,2.21,2.21,0,0,0-.75-1.52,2.18,2.18,0,0,0-1.61-.54l-1.92.1c-3.07.14-5.39.26-8.11,2V7.6a2.42,2.42,0,0,0-2.42-2.42h-2.59A2.42,2.42,0,0,0,192.1,7.6V52.76a15.86,15.86,0,0,0-.34,1.74c-3.29-1.5-8.12-3-12.64-1.69-3.7,1.07-6.52,3.83-8.39,8.26-3.82,10.86,3.82,24.6,7.38,30.14l-10.42,0h0a1,1,0,0,0,0,2l21.25.09h0a1,1,0,0,0,0-2l-8.42,0c-2.87-4.3-11.67-18.78-7.93-29.43,1.6-3.79,4-6.16,7.08-7.06,4.2-1.22,8.91.45,11.9,1.9,0,.38,0,.75-.05,1.13s0,1-.07,1.58a2.21,2.21,0,0,0,2.18,2.25h.11l1.82,0c4.31,0,7.14-.49,11.59-4.94a23.55,23.55,0,0,0,2-2.28,10.29,10.29,0,0,1,1.3.26c3.18.87,5.67,3.28,7.37,7.06,3.72,10.7-4.93,25-7.87,29.43h-1.81a1,1,0,0,0,0,2h12.59a1,1,0,0,0,0-2ZM194.1,7.6a.42.42,0,0,1,.42-.42h2.59a.42.42,0,0,1,.42.42v37c-.41.36-.84.75-1.28,1.19a18.18,18.18,0,0,0-2.15,2.57Zm15.69,38c-.19,3.91-.28,5.87-4.06,9.64-4.45,4.45-6.65,4.42-12,4.34h-.11a.21.21,0,0,1-.21-.19c0-.52.05-1,.07-1.55.15-3.63.28-6.76,4.15-10.63s6-3.94,10.07-4.12l2-.1h0a.21.21,0,0,1,.14.05.23.23,0,0,1,.08.17C209.87,44.08,209.83,44.87,209.8,45.6Z"/><path class="cls-1" d="M203.34,91.14h-8.27a1,1,0,0,0,0,2h8.27a1,1,0,0,0,0-2Z"/><path class="cls-1" d="M655.06,180a20.36,20.36,0,0,0-13.79,5.46,7.87,7.87,0,0,0-2.22-2.63,7.2,7.2,0,0,0-9.27.28,7.36,7.36,0,0,0-1.44,8.62.42.42,0,0,1-.06.44,138.49,138.49,0,0,1-12.21,13.92c-3.75,4-8.63,5.36-14.16,6.66-1.22.29-2.48.53-3.7.77-.93.18-1.86.36-2.79.56-6.94,1.51-14.84,3.66-20.77,10.08-7.48,8.09-9.5,19.65-4.91,28.11,3.6,6.63,9.19,11.09,15.75,12.57a22.77,22.77,0,0,0,5,.56,27.91,27.91,0,0,0,16.36-5.73c6.29-4.6,8.93-11.73,10.67-18.1.62-2.27,1.1-4.59,1.56-6.83,1.36-6.63,2.65-12.9,7.52-18.35l.91-1.06c2-2.27,4.89-5.66,8.09-9.08A20.33,20.33,0,1,0,655.06,180ZM626,214l-.9,1c-5.22,5.84-6.62,12.67-8,19.27-.45,2.21-.92,4.49-1.53,6.7-1.74,6.34-4.14,12.79-9.92,17-6.28,4.58-13.3,6.3-19.76,4.84-6.07-1.37-11.06-5.37-14.43-11.57-4.18-7.72-2.28-18.32,4.63-25.79,5.54-6,13.09-8,19.73-9.48.91-.2,1.83-.37,2.74-.55,1.24-.24,2.53-.49,3.79-.78,5.64-1.33,11-2.89,15.13-7.21.76-.76,1.5-1.54,2.25-2.32l7.45,7.45Zm-4.87-10.29c3.08-3.3,6-6.76,8.73-10.32a2.43,2.43,0,0,0,.27-2.55,5.06,5.06,0,0,1,4.42-7.58,5.61,5.61,0,0,1,3.29,1.15,5.54,5.54,0,0,1,2.08,3.06c0,.13,0,.25.07.38s0,.2,0,.3,0,.18,0,.27a3.26,3.26,0,0,1,0,.4c0,.07,0,.13,0,.2a3,3,0,0,1-.18.58h0a1.49,1.49,0,0,0,1.76,2,5.46,5.46,0,0,1,5.66,2.56,4.3,4.3,0,0,1,.61,3.41,5.18,5.18,0,0,1-1,2c-1.08,1.63-4.61,2.05-6.58,1.18a2.36,2.36,0,0,0-2.59.54c-3.27,3.27-6.52,6.9-9.08,9.82Zm33.93,14.95a18.39,18.39,0,0,1-17.85-14.12q.89-.93,1.8-1.84a.37.37,0,0,1,.38-.1c2.72,1.21,7.35.62,9-1.83a6.9,6.9,0,0,0,1.41-2.79,6.32,6.32,0,0,0-.89-4.89,7.65,7.65,0,0,0-7-3.58,5.13,5.13,0,0,0,.11-.9c0-.13,0-.26,0-.39s0-.37,0-.56,0-.08,0-.11A18.12,18.12,0,0,1,655.06,182a18.33,18.33,0,0,1,0,36.66Z"/><path class="cls-1" d="M483.31,45.87a2.89,2.89,0,0,0,2-4.93,3,3,0,0,0-4.09,0,2.89,2.89,0,0,0,2,4.93Zm-.63-3.52h0a.89.89,0,0,1,1.26,0,.89.89,0,0,1,0,1.26.91.91,0,0,1-1.26,0,.89.89,0,0,1,0-1.26Z"/><path class="cls-1" d="M461.85,49.84h0a2.89,2.89,0,1,0,4.09,0A2.87,2.87,0,0,0,461.85,49.84Zm2.67,2.67a.89.89,0,1,1,.26-.63A.89.89,0,0,1,464.52,52.51Z"/><path class="cls-1" d="M494.61,23a2.89,2.89,0,1,0-2-4.93h0a2.89,2.89,0,0,0,2,4.93ZM494,19.51a.89.89,0,1,1-.26.63A.89.89,0,0,1,494,19.51Z"/><path class="cls-1" d="M471.12,66.23l21.47-21.47a2.54,2.54,0,0,0,1,.13A2.49,2.49,0,0,0,495.3,44a2.53,2.53,0,0,0,.48-2.45l17.91-17.9a11.78,11.78,0,0,0,2.16-13.58,2.5,2.5,0,0,0-2.92-3.67,11.76,11.76,0,0,0-13.17-1.29,2.5,2.5,0,0,0-3.61,3L473,31.24a2.51,2.51,0,0,0-3.18,3.18L454.56,49.67a11.78,11.78,0,0,0,0,16.56,11.64,11.64,0,0,0,1,.92,2.51,2.51,0,0,0,.66,2.34h0a2.52,2.52,0,0,0,3.55,0l.16-.19A11.68,11.68,0,0,0,471.12,66.23Zm-11.32.93-1-.33-.27,1a.49.49,0,0,1-.12.21.51.51,0,0,1-.72,0,.5.5,0,0,1,0-.66l.64-.84L457.4,66A9.59,9.59,0,0,1,456,64.82a9.77,9.77,0,0,1,0-13.74l16.4-16.43-.61-.7a.51.51,0,0,1,.72-.72l.7.61L498.72,8.33l-.59-.7a.5.5,0,0,1,.06-.71.5.5,0,0,1,.71.06l.56.67.74-.46a9.76,9.76,0,0,1,11.88,1.16l.63.59.68-.54a.5.5,0,0,1,.71.08.5.5,0,0,1-.08.7l-.68.54.44.75a9.77,9.77,0,0,1-1.5,11.79L493.18,41.34l.61.7a.51.51,0,0,1,0,.67.51.51,0,0,1-.35.17.5.5,0,0,1-.37-.12l-.7-.61L469.71,64.81A9.7,9.7,0,0,1,459.8,67.16Z"/><path class="cls-1" d="M556.88,25.49l-8.27-7.59a2.43,2.43,0,0,0-3-.24c-5.21,3.46-10.91,7.66-16.95,12.48a2.42,2.42,0,0,0-.38,3.4,2.47,2.47,0,0,0,.26.28L543,47a2.42,2.42,0,0,0,3.42-.14,2.35,2.35,0,0,0,.26-.34c4.23-6.56,7.84-12.68,10.75-18.18A2.42,2.42,0,0,0,556.88,25.49Zm-1.26,2c-2.87,5.45-6.46,11.51-10.7,18.09a.42.42,0,0,1-.6,0l-14.5-13.28a.42.42,0,0,1,.07-.59c6-4.79,11.65-9,16.81-12.38h0a.42.42,0,0,1,.24-.07.44.44,0,0,1,.3.13l8.28,7.6A.42.42,0,0,1,555.62,27.46Z"/><path class="cls-1" d="M478.4,78.23a2.44,2.44,0,0,0-3.4.14c-6.41,6.81-11.1,12.6-13.2,16.3l0,0a2.49,2.49,0,0,0,.49,2.91c2.12,2,3.78,3.53,5.14,4.8l2.6,2.43,8.64,7.94,3.44,3a2.46,2.46,0,0,0,1.58.57,2.58,2.58,0,0,0,1.39-.41c3.54-2.49,8.7-7.59,14.93-14.73a2.44,2.44,0,0,0-.19-3.4Zm20.09,21.69c-6,6.92-11.22,12-14.54,14.38a.48.48,0,0,1-.55,0l-3.4-3-8.62-7.92L468.79,101c-1.36-1.28-3-2.84-5.13-4.79a.49.49,0,0,1-.1-.55c2-3.57,6.62-9.21,12.9-15.89a.43.43,0,0,1,.6,0l21.4,19.61A.43.43,0,0,1,498.49,99.92Z"/><path class="cls-1" d="M501.1,56h0a2.42,2.42,0,0,0-3.29,0c-5.92,5.57-10.75,10.32-14.76,14.51a2.39,2.39,0,0,0-.67,1.72,2.44,2.44,0,0,0,.79,1.74l21.31,19.59a2.42,2.42,0,0,0,1.63.63,2.34,2.34,0,0,0,1.74-.76l.1-.11c1.23-1.42,2.53-3,3.85-4.55a2.4,2.4,0,0,0,1.3.38h2.26a2.42,2.42,0,0,0,2.42-2.42V84.52a2.41,2.41,0,0,0-1-1.91q2-2.56,4.13-5.31a2.42,2.42,0,0,0-.29-3.25Zm14.66,30.74a.42.42,0,0,1-.42.42h-2.26a.42.42,0,0,1-.38-.25v0a.41.41,0,0,1,0-.15V84.52a.42.42,0,0,1,.42-.42h2.26a.42.42,0,0,1,.42.42Zm3.59-10.7c-1.6,2.09-3.17,4.11-4.69,6h-1.58a2.42,2.42,0,0,0-2.42,2.42v2.26a2.35,2.35,0,0,0,0,.25c-1.48,1.79-2.92,3.5-4.29,5.08h0a.41.41,0,0,1-.57,0L484.5,72.53a.41.41,0,0,1,0-.58c4-4.17,8.8-8.9,14.68-14.43a.43.43,0,0,1,.58,0l19.55,18A.43.43,0,0,1,519.35,76.08Z"/><path class="cls-1" d="M539.19,49.77,524.08,36a2.43,2.43,0,0,0-3.17-.1c-2.29,1.85-4.67,3.84-7.07,5.89l-.5-.67a2.42,2.42,0,0,0-3.39-.49l-1.81,1.35a2.42,2.42,0,0,0-.49,3.39l.82,1.1c-1.1,1-2.19,1.94-3.27,2.92a2.42,2.42,0,0,0-.17,3.41l.16.16L524.1,70.28a2.4,2.4,0,0,0,1.63.64h.11a2.4,2.4,0,0,0,1.68-.78l.16-.2c4.22-5.7,8.22-11.44,11.9-17A2.41,2.41,0,0,0,539.19,49.77Zm-29.85-6.23,1.81-1.35a.42.42,0,0,1,.59.08l1.35,1.81a.41.41,0,0,1,.07.2.41.41,0,0,1-.16.25L511.2,45.9a.41.41,0,0,1-.55-.07l-.66-.74h0l-.72-1A.42.42,0,0,1,509.34,43.55Zm17.12,16.74a.42.42,0,0,1,.42-.42h2.26a.42.42,0,0,1,.41.37v2.17a.42.42,0,0,1-.42.42h-2.26a.42.42,0,0,1-.41-.37Zm11.44-8.5q-3,4.62-6.34,9.34v-.84s0-.07,0-.11v0a2.42,2.42,0,0,0-2.42-2.42h-2.26a2.42,2.42,0,0,0-2.42,2.42v2.26s0,.06,0,.1v0A2.42,2.42,0,0,0,526.88,65h1.94q-1.37,1.9-2.78,3.81a.42.42,0,0,1-.29.14.43.43,0,0,1-.3-.11L506.53,51.42a.42.42,0,0,1,0-.59q1.64-1.49,3.32-3a2.44,2.44,0,0,0,1.08.25,2.41,2.41,0,0,0,1.45-.48l1.81-1.35a2.41,2.41,0,0,0,1-1.78s0,0,0,0a2.37,2.37,0,0,0,0-.24,2.41,2.41,0,0,0-.15-.85c2.43-2.08,4.83-4.08,7.15-6a.42.42,0,0,1,.55,0l15.11,13.82h0A.42.42,0,0,1,537.91,51.79Z"/><path class="cls-1" d="M534.95,83.78a2.4,2.4,0,0,0-1.67-.8,2.43,2.43,0,0,0-1.75.62l-1.68,1.51a2.42,2.42,0,0,0-.18,3.42l1.51,1.68a2.4,2.4,0,0,0,1.67.8H533a2.4,2.4,0,0,0,1.62-.62l1.68-1.51a2.42,2.42,0,0,0,.17-3.42Zm0,3.61-1.68,1.51a.41.41,0,0,1-.3.11.42.42,0,0,1-.29-.14l-1.51-1.68a.42.42,0,0,1,0-.59l1.68-1.51a.42.42,0,0,1,.28-.11h0a.42.42,0,0,1,.29.14L535,86.8a.42.42,0,0,1,0,.59Z"/><path class="cls-1" d="M557,87.47l-1.77-1.4a2.42,2.42,0,0,0-3.4.39l-1.4,1.77a2.42,2.42,0,0,0,.39,3.4l1.77,1.4a2.4,2.4,0,0,0,1.5.52l.28,0a2.4,2.4,0,0,0,1.62-.9l1.41-1.77A2.42,2.42,0,0,0,557,87.47Zm-1.17,2.16-1.41,1.77a.42.42,0,0,1-.59.07l-1.77-1.4a.42.42,0,0,1-.07-.59l1.4-1.77a.42.42,0,0,1,.28-.16h0a.42.42,0,0,1,.26.09l1.77,1.4A.42.42,0,0,1,555.86,89.63Z"/><path class="cls-1" d="M455.19,32.95l1.77,1.4a2.42,2.42,0,0,0,3.4-.39l1.4-1.77a2.42,2.42,0,0,0-.39-3.4l-1.77-1.4h0a2.42,2.42,0,0,0-3.4.39l-1.4,1.77a2.42,2.42,0,0,0,.39,3.4Zm1.17-2.16,1.4-1.77a.42.42,0,0,1,.59-.07l1.77,1.4a.42.42,0,0,1,.07.59l-1.4,1.77a.42.42,0,0,1-.59.07l-1.77-1.4a.42.42,0,0,1-.07-.59Z"/><path class="cls-1" d="M508.39,69.91h-2.26a2.42,2.42,0,0,0-2.42,2.42v2.26A2.42,2.42,0,0,0,506.13,77h2.26a2.42,2.42,0,0,0,2.42-2.42V72.33A2.42,2.42,0,0,0,508.39,69.91ZM506.13,75a.42.42,0,0,1-.42-.42V72.33a.42.42,0,0,1,.42-.42h2.26a.42.42,0,0,1,.42.42v2.26a.42.42,0,0,1-.42.42Z"/><path class="cls-1" d="M541.27,68.81l-2-1.13a2.43,2.43,0,0,0-3.31.89l-1.13,2a2.43,2.43,0,0,0,.89,3.31l2,1.13a2.43,2.43,0,0,0,3.31-.89l1.13-2A2.43,2.43,0,0,0,541.27,68.81Zm-.84,2.31-1.13,2a.42.42,0,0,1-.58.16l-2-1.13a.43.43,0,0,1-.16-.58l1.13-2a.42.42,0,0,1,.37-.21.42.42,0,0,1,.21.06l2,1.13A.43.43,0,0,1,540.43,71.12Z"/><path class="cls-1" d="M455.83,80.9h-2.26a2.42,2.42,0,0,0-2.42,2.42v2.26A2.42,2.42,0,0,0,453.57,88h2.26a2.42,2.42,0,0,0,2.42-2.42V83.32A2.42,2.42,0,0,0,455.83,80.9Zm.42,4.68a.42.42,0,0,1-.42.42h-2.26a.42.42,0,0,1-.42-.42V83.32a.42.42,0,0,1,.42-.42h2.26a.42.42,0,0,1,.42.42Z"/><path class="cls-1" d="M517.23,105.05H515a2.42,2.42,0,0,0-2.42,2.42v2.26a2.42,2.42,0,0,0,2.42,2.42h2.26a2.42,2.42,0,0,0,2.42-2.42v-2.26A2.42,2.42,0,0,0,517.23,105.05Zm.42,4.68a.42.42,0,0,1-.42.42H515a.42.42,0,0,1-.42-.42v-2.26a.42.42,0,0,1,.42-.42h2.26a.42.42,0,0,1,.42.42Z"/><path class="cls-1" d="M557.62,48.32h-2.26a2.42,2.42,0,0,0-2.42,2.42V53a2.42,2.42,0,0,0,2.42,2.42h2.26A2.42,2.42,0,0,0,560,53V50.74A2.42,2.42,0,0,0,557.62,48.32ZM558,53a.42.42,0,0,1-.42.42h-2.26a.42.42,0,0,1-.42-.42V50.74a.42.42,0,0,1,.42-.42h2.26a.42.42,0,0,1,.42.42Z"/></g></g></svg>