<svg xmlns="http://www.w3.org/2000/svg" viewBox="0 0 65.84 82.85"><defs><style>.cls-1{fill:#f0a11f;}.cls-2,.cls-4,.cls-5{fill:none;}.cls-2,.cls-3,.cls-4,.cls-5{stroke:#414042;stroke-miterlimit:10;}.cls-2,.cls-3{stroke-linecap:round;}.cls-2,.cls-3,.cls-5{stroke-width:2px;}.cls-3{fill:#fff;}</style></defs><title>Asset 2</title><g id="Layer_2" data-name="Layer 2"><g id="Drinks_Icon" data-name="Drinks Icon"><g id="Beer"><rect class="cls-1" x="9.67" y="30.45" width="51.53" height="52.4" rx="1.4" ry="1.4"/><path class="cls-2" d="M4.71,20.42,4.63,6.07a.7.7,0,0,1,.73-.66H17.58A1.16,1.16,0,0,1,18.81,6.5v27"/><line class="cls-3" x1="4.74" y1="24.48" x2="4.63" y2="43.73"/><path class="cls-2" d="M22.78,27.5V6.15c0-.29.33-.53.73-.54l11.7-.07c.41,0,.74.24.74.54V17.76"/><line class="cls-3" x1="36.17" y1="22.6" x2="36.17" y2="39.46"/><line class="cls-3" x1="36.17" y1="44.82" x2="36.17" y2="47.17"/><line class="cls-3" x1="18.86" y1="37.54" x2="18.84" y2="42.03"/><line class="cls-3" x1="18.76" y1="45.45" x2="18.76" y2="45.45"/><line class="cls-3" x1="40" y1="29.06" x2="40" y2="31.41"/><line class="cls-3" x1="40" y1="35.75" x2="40" y2="52.62"/><path class="cls-4" d="M61.2,51.75a1.22,1.22,0,0,0,.36-.87V32.78a1.22,1.22,0,0,0-.36-.87l-4.48-2.48V54.23Z"/><path class="cls-5" d="M56.66,54.29l.07-.07v-52A1.22,1.22,0,0,0,55.5,1H2.22A1.22,1.22,0,0,0,1,2.22v72.4a1.25,1.25,0,0,0,.36.87,1.22,1.22,0,0,0,.87.36H55.5a1.22,1.22,0,0,0,1.22-1.22V54.23Z"/><path class="cls-5" d="M64.49,30.05l-7.76-5.76v5.14l4.48,2.48a1.22,1.22,0,0,1,.36.87V50.88a1.22,1.22,0,0,1-.36.87l-4.48,2.48V59l7.78-6a1.22,1.22,0,0,0,.34-.85V30.92A1.22,1.22,0,0,0,64.49,30.05Z"/><path class="cls-2" d="M40,24.38V6c0-.29.33-.53.73-.54l11.7-.07c.41,0,.74.24.74.54V27.63"/></g></g></g></svg>