<svg xmlns="http://www.w3.org/2000/svg" viewBox="0 0 91.16 107.32"><defs><style>.cls-1{fill:#f8d40c;}.cls-2,.cls-4,.cls-5{fill:none;}.cls-3{fill:#fcb226;}.cls-4,.cls-5,.cls-6{stroke:#414042;}.cls-4{stroke-miterlimit:10;}.cls-4,.cls-5,.cls-7{stroke-width:2px;}.cls-5,.cls-6,.cls-7{stroke-linecap:round;stroke-linejoin:round;}.cls-6,.cls-7{fill:#fff;}.cls-6{stroke-width:1.5px;}.cls-7{stroke:#231f20;}</style></defs><title>Asset 1</title><g id="Layer_2" data-name="Layer 2"><g id="Layer_13" data-name="Layer 13"><path class="cls-1" d="M29.85,71.86l5.4,34.27a1.42,1.42,0,0,0,1.4,1.2H72a1.42,1.42,0,0,0,1.39-1.15l6.73-34.27a1.42,1.42,0,0,0-1.39-1.69H31.26A1.42,1.42,0,0,0,29.85,71.86Z"/><path class="cls-2" d="M39.67,32.23H19.17l3.25,19.22A19.33,19.33,0,0,0,39.67,32.23Z"/><g id="Lemon"><circle class="cls-3" cx="23.44" cy="35.92" r="19.33"/></g><path class="cls-4" d="M22.42,51.44l8.49,50.12a.85.85,0,0,0,.84.71H68.32a.85.85,0,0,0,.84-.7L81.27,33.22a.85.85,0,0,0-.84-1H39.67"/><path class="cls-4" d="M39.67,32.23A19.37,19.37,0,1,0,22.42,51.44L19.34,33.22a.85.85,0,0,1,.84-1Z"/><path class="cls-5" d="M57.31,82.25l4.57-64.58a.85.85,0,0,1,.38-.65L86.91,1a3.68,3.68,0,0,1,3.25,3.75l-23.64,15a.85.85,0,0,0-.39.66s-3.81,59.65-4,61.82C60,84.25,57.31,82.25,57.31,82.25Z"/><line class="cls-6" x1="37.76" y1="65.16" x2="25.44" y2="65.16"/><path class="cls-7" d="M42.2,65.16"/><path class="cls-7" d="M42.2,65.16"/><line class="cls-6" x1="41.61" y1="65.16" x2="50.33" y2="65.16"/><line class="cls-6" x1="54.99" y1="65.16" x2="53.51" y2="65.16"/><line class="cls-6" x1="74.74" y1="65.16" x2="61.03" y2="65.16"/></g></g></svg>