<svg xmlns="http://www.w3.org/2000/svg" viewBox="0 0 57.22 93.19"><defs><style>.cls-1{fill:#fadb52;}.cls-2{fill:none;stroke-width:2px;}.cls-2,.cls-3{stroke:#414042;stroke-linecap:round;stroke-linejoin:round;}.cls-3{fill:#fff;stroke-width:1.5px;}</style></defs><title>Asset 4</title><g id="Layer_2" data-name="Layer 2"><g id="Drinks_Icon" data-name="Drinks Icon"><g id="Wine"><path id="Wine-2" data-name="Wine" class="cls-1" d="M7.92,8.63c1,39.94,48.35,40.16,49.3,0A1.33,1.33,0,0,0,55.8,7.4H9.35A1.33,1.33,0,0,0,7.92,8.63Z"/><g id="Wineglass"><path class="cls-2" d="M1,2.44c1,46.83,48.35,47.09,49.3,0A1.42,1.42,0,0,0,48.87,1H2.42A1.42,1.42,0,0,0,1,2.44Z"/><line class="cls-2" x1="25.65" y1="37.66" x2="25.65" y2="86.36"/><path class="cls-2" d="M25.43,86.74,9.85,90.22a1,1,0,0,0,.22,2H41.23a1,1,0,0,0,.22-2L25.87,86.74A1,1,0,0,0,25.43,86.74Z"/></g><g id="Line"><line class="cls-3" x1="13.33" y1="10.03" x2="2" y2="10.03"/><line class="cls-3" x1="17.18" y1="10.03" x2="25.89" y2="10.03"/><line class="cls-3" x1="30.56" y1="10.03" x2="29.07" y2="10.03"/><line class="cls-3" x1="49.3" y1="10.03" x2="36.59" y2="10.03"/></g></g></g></g></svg>