<?xml version="1.0" encoding="utf-8"?>
<!-- Generator: Adobe Illustrator 21.1.0, SVG Export Plug-In . SVG Version: 6.00 Build 0)  -->
<svg version="1.1" id="Layer_1" xmlns="http://www.w3.org/2000/svg" xmlns:xlink="http://www.w3.org/1999/xlink" x="0px" y="0px"
	 viewBox="0 0 662.8 283.2" style="enable-background:new 0 0 662.8 283.2;" xml:space="preserve">
<style type="text/css">
	.st0{fill:none;stroke:#333333;stroke-width:3;stroke-miterlimit:10;}
	.st1{fill:#FF5B4D;}
	.st2{fill:none;stroke:#333333;stroke-width:2;stroke-miterlimit:10;}
	.st3{fill:#FF5B4D;stroke:#333333;stroke-width:2;stroke-miterlimit:10;}
	.st4{fill:none;stroke:#1A1A1A;stroke-width:3;stroke-linecap:round;stroke-miterlimit:10;}
	.st5{fill:#FFFFFF;stroke:#333333;stroke-width:2;stroke-miterlimit:10;}
	.st6{fill:#F7D40C;stroke:#1A1A1A;stroke-width:2;stroke-miterlimit:10;}
	.st7{fill:#FFFFFF;stroke:#1A1A1A;stroke-width:2;stroke-miterlimit:10;}
	.st8{fill:none;stroke:#1A1A1A;stroke-width:2;stroke-miterlimit:10;}
	.st9{fill:#9DE0FF;stroke:#333333;stroke-width:2;stroke-miterlimit:10;}
	.st10{fill:#998675;stroke:#333333;stroke-width:2;stroke-miterlimit:10;}
	.st11{fill:#4D4D4D;}
	.st12{fill:#666666;stroke:#808080;stroke-miterlimit:10;}
	.st13{fill:#FFFFFF;stroke:#808080;stroke-miterlimit:10;}
	.st14{fill:#CCCCCC;}
	.st15{fill:#F7D40C;}
	.st16{fill:#CCCCCC;stroke:#1A1A1A;stroke-width:2;stroke-miterlimit:10;}
	.st17{fill:#FFFFFF;}
	.st18{fill:url(#Sunset-Copy-2_1_);}
	.st19{fill:none;stroke:#333333;stroke-width:2;}
</style>
<title>Asset 5</title>
<g id="Layer_2">
	<g id="Layer_27">
		<path class="st0" d="M618.2,212.5h-5.9c0-0.1,0.1-0.3,0.1-0.4v-63.7c0-0.5-0.3-1-0.8-1.3l-55.7-27.4c-0.3-0.2-0.6-0.4-0.7-0.8
			l-29.7-79.3c-0.1-0.2-0.1-0.3-0.1-0.5V2.9c0-0.8-0.6-1.4-1.4-1.4H71.8c-0.8,0-1.4,0.6-1.4,1.4v221.6h-9v-3.6
			c0-0.8-0.6-1.4-1.4-1.4h-9.2c-0.8,0-1.4,0.6-1.4,1.4v22.2c0,0.8,0.6,1.4,1.4,1.4H60c0.8,0,1.4-0.6,1.4-1.4v-4.6h9v6.6
			c0,0.8,0.6,1.4,1.4,1.4H168c0.8,0,1.4-0.6,1.4-1.4v-6.6H168c0.8,0,1.4-0.6,1.4-1.4c1.5-26.5,24.1-46.7,50.6-45.2
			c24.4,1.4,43.9,20.8,45.2,45.2c0,0.8,0.7,1.4,1.4,1.4H494c0.8,0,1.4-0.6,1.4-1.4c1.3-26.5,23.9-46.9,50.4-45.5
			c15.2,0.8,29.1,8.6,37.5,21.3c0.1,0.1,0.1,0.2,0.2,0.2c-3.1,1.2-5.1,4.2-5.1,7.5v4.7c0,4.5,3.6,8.1,8.1,8.1l0,0h31.7
			c4.5,0,8.1-3.6,8.1-8.1c0,0,0,0,0,0v-4.7C626.3,216.1,622.7,212.5,618.2,212.5z"/>
	</g>
	<g id="Bg_foodtruck">
		<path class="st1" d="M612.4,212.5v-66l-57-28l-30-80v-38h-455v237h99c0.9-26.5,23-47.3,49.5-46.4c25.3,0.8,45.6,21.1,46.4,46.4
			h230.1c0.6-26.5,22.5-47.5,49-46.9c15.9,0.4,30.6,8.6,39.3,21.9H612.4z"/>
	</g>
	<g id="Uitlaat">
		<g id="outline_foodtruck">
			<path class="st2" d="M612.4,212.5v-64.1c0-0.5-0.3-1-0.8-1.3l-55.7-27.4c-0.3-0.2-0.6-0.4-0.7-0.8l-29.8-79.5V2.9
				c0-0.8-0.6-1.4-1.4-1.4H71.8c-0.8,0-1.4,0.6-1.4,1.4v235.6h99c-0.4-26.5,20.8-48.3,47.3-48.7s48.3,20.8,48.7,47.3l0,0
				c0,0.8,0.6,1.4,1.4,1.4H494c0.8,0,1.4-0.6,1.4-1.4c0.8-26.5,22.9-47.4,49.4-46.6c15.8,0.5,30.4,8.7,39,22H612.4z"/>
		</g>
		<path class="st3" d="M50.8,219.5H60c0.8,0,1.4,0.6,1.4,1.4v22.2c0,0.8-0.6,1.4-1.4,1.4h-9.2c-0.8,0-1.4-0.6-1.4-1.4v-22.2
			C49.4,220.1,50,219.5,50.8,219.5z"/>
		<path class="st3" d="M61.4,224.5v14h96c0-4.7,0.5-9.4,1.6-14H61.4z"/>
	</g>
	<g id="Wheel_protect_thing">
		<path class="st2" d="M218.4,177.5c-33.7,0-61,27.3-61,61h12c-0.4-26.5,20.8-48.3,47.3-48.7s48.3,20.8,48.7,47.3l0,0
			c0,0.8,0.6,1.4,1.4,1.4h12.6C279.4,204.8,252.1,177.5,218.4,177.5C218.4,177.5,218.4,177.5,218.4,177.5z"/>
		<path class="st2" d="M598.6,212.5c-14.3-30.5-50.7-43.6-81.2-29.2c-21.4,10.1-35,31.6-35,55.2H494c0.8,0,1.4-0.6,1.4-1.4
			c0.8-26.5,22.9-47.3,49.4-46.6c15.8,0.5,30.4,8.7,38.9,22H598.6z"/>
	</g>
	<g id="Bottom_line">
		<line class="st4" x1="96.7" y1="281.7" x2="619.5" y2="281.7"/>
		<line class="st4" x1="634.2" y1="281.2" x2="661.3" y2="281.2"/>
		<line class="st4" x1="36.9" y1="281.7" x2="77.7" y2="281.7"/>
		<line class="st4" x1="1.5" y1="281.7" x2="21.9" y2="281.7"/>
	</g>
	<g id="Layer_4">
		<polygon class="st2" points="401.4,1.5 400.4,238.5 392.4,238.5 392.4,1.5 		"/>
	</g>
	<g id="Door">
		<path class="st2" d="M401.2,39.5H492c0.8,0,1.4,0.6,1.4,1.4c0,0,0,0,0,0V189c0,0.3-0.1,0.7-0.4,0.9
			c-12.7,14.6-16.6,32.7-17.5,37.4c-0.1,0.7-0.7,1.2-1.4,1.2h-73.8L401.2,39.5z"/>
	</g>
	<g id="Layer_6">
		<path class="st3" d="M70.4,12.5h455V2.9c0-0.8-0.6-1.4-1.4-1.4H71.8c-0.8,0-1.4,0.6-1.4,1.4V12.5z"/>
	</g>
	<g id="Layer_7">
		<path class="st5" d="M120.2,47.5h238.5c0.4,0,0.9,0.2,1.1,0.6l23.9,32.2c0.5,0.6,0.3,1.5-0.3,2c-0.2,0.2-0.5,0.3-0.9,0.3H99.9
			c-0.8,0-1.4-0.6-1.4-1.4c0-0.3,0.1-0.5,0.2-0.8L119,48.2C119.3,47.8,119.7,47.5,120.2,47.5z"/>
	</g>
	<g id="Layer_26">
		<polygon class="st6" points="133.4,47.5 113.4,82.5 133.4,82.5 147.4,47.5 		"/>
		<polygon class="st7" points="147.4,47.5 131.4,82.5 153.4,82.5 167.4,47.5 		"/>
		<polygon class="st6" points="162.4,47.5 148.4,82.5 166.4,82.5 179.4,47.5 		"/>
		<polygon class="st7" points="179.4,47.5 166.4,82.5 183.4,82.5 195.4,47.5 		"/>
		<polygon class="st6" points="195.4,47.5 183.4,82.5 202.4,82.5 211.4,47.5 		"/>
		<polygon class="st7" points="211.4,47.5 202.4,82.5 220.4,82.5 226.4,47.5 		"/>
		<polygon class="st6" points="226.4,47.5 220.4,82.5 241.4,82.5 241.4,47.5 		"/>
		<polygon class="st8" points="241.4,47.5 241.4,82.5 262.4,82.5 258.4,47.5 		"/>
		<polygon class="st6" points="283.4,82.5 262.4,82.5 256.4,47.5 272.4,47.5 		"/>
		<polygon class="st8" points="304.4,82.5 283.4,82.5 272.7,47.5 289.4,47.5 		"/>
		<polygon class="st6" points="327.4,82.5 304.4,82.5 289.4,47.5 306.4,47.5 		"/>
		<polygon class="st8" points="347.4,82.5 327.4,82.5 306.4,47.5 324.4,47.5 		"/>
		<polygon class="st6" points="366.4,82.5 347.4,82.5 324.4,47.5 341.4,47.5 		"/>
	</g>
	<g id="Layer_8">
		<rect x="111.4" y="82.5" class="st9" width="257" height="55"/>
	</g>
	<g id="Window_food">
		<path class="st5" d="M419.5,45.5h55.8c5.6,0,10.1,4.5,10.1,10.1v50.8c0,5.6-4.5,10.1-10.1,10.1h-55.8c-5.6,0-10.1-4.5-10.1-10.1
			V55.6C409.4,50,413.9,45.5,419.5,45.5z"/>
		<path class="st9" d="M420.1,52.7h53.5c2.1,0,3.8,1.7,3.8,3.8v49.2c0,2.1-1.7,3.8-3.8,3.8h-53.5c-2.1,0-3.8-1.7-3.8-3.8V56.5
			C416.4,54.4,418.1,52.7,420.1,52.7z"/>
		<path class="st2" d="M483.7,119.5h1.4c1.8,0,3.3,1.5,3.3,3.3v13.4c0,1.8-1.5,3.3-3.3,3.3h-1.4c-1.8,0-3.3-1.5-3.3-3.3v-13.4
			C480.4,121,481.8,119.5,483.7,119.5z"/>
	</g>
	<g id="Woodie">
		<path class="st10" d="M109.8,137.5h262.2c0.8,0,1.4,0.6,1.4,1.4v4.2c0,0.8-0.6,1.4-1.4,1.4H109.8c-0.8,0-1.4-0.6-1.4-1.4v-4.2
			C108.4,138.1,109,137.5,109.8,137.5z"/>
	</g>
	<g id="Truck_window">
		<path class="st5" d="M499.8,39.5h25.6l30,80h-55.6c-0.8,0-1.4-0.6-1.4-1.4c0,0,0,0,0,0V40.9C498.4,40.1,499,39.5,499.8,39.5
			L499.8,39.5z"/>
		<path class="st9" d="M507.8,47.5H519c0.6,0,1.1,0.4,1.3,0.9l22.3,62.2c0.3,0.7-0.1,1.6-0.9,1.8c-0.2,0.1-0.3,0.1-0.5,0.1h-33.6
			c-0.8,0-1.4-0.6-1.4-1.4c0,0,0,0,0,0V48.9C506.4,48.1,507,47.5,507.8,47.5L507.8,47.5z"/>
	</g>
	<g id="Bumper">
		<g id="Wheels">
			<circle class="st11" cx="217.4" cy="240.5" r="41"/>
			<circle class="st12" cx="217.9" cy="241" r="23.8"/>
			<circle class="st13" cx="217.9" cy="241" r="20"/>
			<circle class="st11" cx="543.4" cy="240.5" r="41"/>
			<circle class="st12" cx="542.9" cy="241" r="23.8"/>
			<circle class="st13" cx="542.9" cy="241" r="20"/>
			<circle class="st0" cx="217.4" cy="240.5" r="41"/>
			<circle class="st0" cx="543.4" cy="240.5" r="41"/>
		</g>
		<path class="st14" d="M586.5,212.5h31.7c4.5,0,8.1,3.6,8.1,8.1v4.7c0,4.5-3.6,8.1-8.1,8.1h-31.7c-4.5,0-8.1-3.6-8.1-8.1v-4.7
			C578.4,216.1,582,212.5,586.5,212.5z"/>
		<path class="st2" d="M586.5,212.5h31.7c4.5,0,8.1,3.6,8.1,8.1v4.7c0,4.5-3.6,8.1-8.1,8.1h-31.7c-4.5,0-8.1-3.6-8.1-8.1v-4.7
			C578.4,216.1,582,212.5,586.5,212.5z"/>
	</g>
	<g id="Licht_front">
		<path class="st15" d="M578.8,173.5H595c0.8,0,1.4,0.6,1.4,1.4v6.2c0,0.8-0.6,1.4-1.4,1.4h-16.2c-0.8,0-1.4-0.6-1.4-1.4v-6.2
			C577.4,174.1,578,173.5,578.8,173.5z"/>
		<path class="st2" d="M578.8,173.5H595c0.8,0,1.4,0.6,1.4,1.4v6.2c0,0.8-0.6,1.4-1.4,1.4h-16.2c-0.8,0-1.4-0.6-1.4-1.4v-6.2
			C577.4,174.1,578,173.5,578.8,173.5z"/>
	</g>
	<g id="Layer_14">
		<path class="st2" d="M504.8,145.5h8.2c0.8,0,1.4,0.6,1.4,1.4v20.2c0,0.8-0.6,1.4-1.4,1.4h-8.2c-0.8,0-1.4-0.6-1.4-1.4v-20.2
			C503.4,146.1,504,145.5,504.8,145.5z"/>
	</g>
	<g id="Layer_15">
		<path class="st16" d="M70.4,238.5h99l0,0v6.6c0,0.8-0.6,1.4-1.4,1.4H71.8c-0.8,0-1.4-0.6-1.4-1.4V238.5L70.4,238.5z"/>
	</g>
	<g id="Licht_back">
		<path class="st15" d="M84.9,23.5L84.9,23.5c3.6,0,6.5,2.9,6.5,6.5v17c0,3.6-2.9,6.5-6.5,6.5l0,0c-3.6,0-6.5-2.9-6.5-6.5V30
			C78.4,26.4,81.3,23.5,84.9,23.5z"/>
		<path class="st2" d="M84.9,23.5L84.9,23.5c3.6,0,6.5,2.9,6.5,6.5v17c0,3.6-2.9,6.5-6.5,6.5l0,0c-3.6,0-6.5-2.9-6.5-6.5V30
			C78.4,26.4,81.3,23.5,84.9,23.5z"/>
	</g>
	<g id="Layer_24">
		<path class="st8" d="M111.4,82.5v10.3c4.1-2.6,7.5-6.1,10-10.3H111.4z"/>
		<path class="st8" d="M125.3,82.5c5.2,4.2,15.7,7,27.9,7s22.8-2.8,27.9-7H125.3z"/>
		<path class="st8" d="M184.8,82.5c5.1,4.2,15.7,7,27.9,7s22.8-2.8,27.9-7H184.8z"/>
		<path class="st8" d="M247.5,82.5c5.1,4.2,15.7,7,27.9,7s22.8-2.8,27.9-7H247.5z"/>
		<path class="st8" d="M302.5,82.5c5.1,4.2,15.7,7,27.9,7s22.8-2.8,27.9-7H302.5z"/>
		<path class="st8" d="M358.8,82.5c2.4,4,5.6,7.5,9.6,10v-10H358.8z"/>
		<circle class="st17" cx="122.8" cy="83.8" r="3.5"/>
		<circle class="st17" cx="152.9" cy="93" r="3.5"/>
		<circle class="st17" cx="215.9" cy="93" r="3.5"/>
		<circle class="st17" cx="246.8" cy="83.8" r="3.5"/>
		<circle class="st17" cx="274.9" cy="93" r="3.5"/>
		<circle class="st17" cx="302.9" cy="86" r="3.5"/>
		<circle class="st17" cx="330.9" cy="93" r="3.5"/>
		<circle class="st17" cx="357.9" cy="86" r="3.5"/>
		<circle class="st17" cx="184.8" cy="83.8" r="3.5"/>
		<circle class="st15" cx="124.8" cy="85.8" r="3.5"/>
		<circle class="st15" cx="154.9" cy="95" r="3.5"/>
		<circle class="st15" cx="217.9" cy="95" r="3.5"/>
		<circle class="st15" cx="248.8" cy="85.8" r="3.5"/>
		<circle class="st15" cx="276.9" cy="95" r="3.5"/>
		<circle class="st15" cx="304.9" cy="88" r="3.5"/>
		<circle class="st15" cx="332.9" cy="95" r="3.5"/>
		<circle class="st15" cx="359.9" cy="88" r="3.5"/>
		<circle class="st15" cx="186.8" cy="85.8" r="3.5"/>
		<circle class="st8" cx="122.9" cy="83.7" r="3.5"/>
		<circle class="st8" cx="152.9" cy="93" r="3.5"/>
		<circle class="st8" cx="215.9" cy="93" r="3.5"/>
		<circle class="st8" cx="246.9" cy="83.7" r="3.5"/>
		<circle class="st8" cx="302.9" cy="85" r="3.5"/>
		<circle class="st8" cx="274.9" cy="93" r="3.5"/>
		<circle class="st8" cx="330.9" cy="93" r="3.5"/>
		<circle class="st8" cx="357.9" cy="85" r="3.5"/>
		<circle class="st8" cx="184.9" cy="83.7" r="3.5"/>
	</g>
	<g id="Layer_31">
		<g id="Page-1">
			<g id="iPhone-SE-Copy-3">
				<g id="Logo">
					<path id="Sunset-Copy" class="st17" d="M335.2,168.7c-0.1-1.2-0.4-2.3-1-3.3c-0.2-0.4-0.1-0.9,0.3-1.1c0.1-0.1,0.2-0.1,0.4-0.1
						c0.1,0,0.2-0.1,0.2-0.2c0,0,0,0,0,0c-0.2-1.8-1-3.5-2.3-4.8c-1.5-1.5-3.5-2.3-5.6-2.3h-0.5c-1.8,0-3.5,0.6-4.9,1.7
						c-1.9,1.3-3,3.4-3,5.6v0.6c0.1,1.2,0.4,2.3,1,3.3c0.2,0.4,0.1,0.9-0.3,1.1c-0.1,0.1-0.3,0.1-0.4,0.1c-0.1,0-0.2,0.1-0.2,0.2
						c0,0,0,0,0,0c0.2,1.8,1,3.5,2.3,4.8c1.5,1.5,3.5,2.4,5.6,2.3h0.4c1.8,0,3.5-0.6,4.9-1.7c1.9-1.2,3-3.3,3-5.6L335.2,168.7z
						 M275.3,168.7c-0.1-1.2-0.4-2.3-1-3.3c-0.2-0.4-0.1-0.9,0.3-1.1c0.1-0.1,0.2-0.1,0.4-0.1c0.1,0,0.2-0.1,0.2-0.2c0,0,0,0,0,0
						c-0.2-1.8-1-3.5-2.3-4.8c-1.5-1.5-3.5-2.3-5.6-2.3h-0.5c-1.8,0-3.5,0.6-4.9,1.7c-1.9,1.3-3,3.4-3,5.6v0.6
						c0.1,1.2,0.4,2.3,1,3.3c0.2,0.4,0.1,0.9-0.3,1.1c-0.1,0.1-0.3,0.1-0.4,0.1c-0.1,0-0.2,0.1-0.2,0.2c0,0,0,0,0,0
						c0.2,1.8,1,3.5,2.3,4.8c1.5,1.5,3.5,2.4,5.6,2.3h0.4c1.8,0,3.5-0.6,4.9-1.7c1.9-1.2,3-3.3,3-5.6V168.7z M294.5,167.9v-10.4l0,0
						c0-0.4-0.3-0.8-0.8-0.8h-15.1c-0.4,0-0.8,0.3-0.8,0.8v10.4c0,4.6,3.7,8.3,8.3,8.3C290.7,176.2,294.5,172.5,294.5,167.9
						C294.5,167.9,294.5,167.9,294.5,167.9L294.5,167.9z M310.5,156.8c3.3,0,6,2.7,6,6v12.7l0,0c0,0.4-0.3,0.8-0.8,0.8h-18
						c-0.4,0-0.8-0.3-0.8-0.8v-18l0,0c0-0.4,0.3-0.8,0.8-0.8h6.8c0.4,0,0.8,0.3,0.8,0.8v0.7l0,0c0,0.3,0.2,0.5,0.5,0.5
						c0.2,0,0.3-0.1,0.4-0.2c0.4-0.4,0.8-0.8,1.2-1.1C308.4,157,309.5,156.7,310.5,156.8L310.5,156.8z M351.1,163v5l0,0
						c0,0.4,0.3,0.7,0.7,0.7l0,0l0,0c0.4,0,0.7,0.3,0.7,0.7c0,0,0,0,0,0v5.3l0,0c0,0.4-0.3,0.8-0.8,0.8h-13.1
						c-0.4,0-0.8-0.3-0.8-0.8v-17.9l0,0c0-0.4,0.3-0.8,0.8-0.8h10.1c0.4,0,0.8,0.3,0.8,0.8v4.6l0,0c0,0.4,0.3,0.8,0.8,0.8h0.1
						C350.8,162.2,351.1,162.6,351.1,163L351.1,163z M370.4,157.5v8.6l0,0c0,0.4-0.3,0.8-0.8,0.8h-0.9c-0.4,0-0.8,0.3-0.8,0.8v7.9
						l0,0c0,0.4-0.3,0.8-0.8,0.8h-10.8c-0.4,0-0.8-0.3-0.8-0.8v-7.9l0,0c0-0.4-0.3-0.8-0.8-0.8h-0.9c-0.4,0-0.8-0.3-0.8-0.8v-8.6
						l0,0c0-0.4,0.3-0.8,0.8-0.8h15.7C370,156.7,370.4,157.1,370.4,157.5C370.4,157.5,370.4,157.5,370.4,157.5L370.4,157.5z"/>
					
						<linearGradient id="Sunset-Copy-2_1_" gradientUnits="userSpaceOnUse" x1="-683.8987" y1="70.5907" x2="-683.3232" y2="70.5907" gradientTransform="matrix(199.87 0 0 36.44 136953.8438 -2402.7192)">
						<stop  offset="0" style="stop-color:#F7D10D"/>
						<stop  offset="1" style="stop-color:#F26965"/>
					</linearGradient>
					<path id="Sunset-Copy-2" class="st18" d="M338.2,171.7c-0.1-1.2-0.4-2.3-1-3.3c-0.2-0.4-0.1-0.9,0.3-1.1
						c0.1-0.1,0.2-0.1,0.4-0.1c0.1,0,0.2-0.1,0.2-0.2c0,0,0,0,0,0c-0.2-1.8-1-3.5-2.3-4.8c-1.5-1.5-3.5-2.3-5.6-2.3h-0.5
						c-1.8,0-3.5,0.6-4.9,1.7c-1.9,1.3-3,3.4-3,5.6v0.6c0.1,1.2,0.4,2.3,1,3.3c0.2,0.4,0.1,0.9-0.3,1.1c-0.1,0.1-0.3,0.1-0.4,0.1
						c-0.1,0-0.2,0.1-0.2,0.2c0,0,0,0,0,0c0.2,1.8,1,3.5,2.3,4.8c1.5,1.5,3.5,2.4,5.6,2.3h0.4c1.8,0,3.5-0.6,4.9-1.7
						c1.9-1.2,3-3.3,3-5.6L338.2,171.7z M278.3,171.7c-0.1-1.2-0.4-2.3-1-3.3c-0.2-0.4-0.1-0.9,0.3-1.1c0.1-0.1,0.2-0.1,0.4-0.1
						c0.1,0,0.2-0.1,0.2-0.2c0,0,0,0,0,0c-0.2-1.8-1-3.5-2.3-4.8c-1.5-1.5-3.5-2.3-5.6-2.3h-0.5c-1.8,0-3.5,0.6-4.9,1.7
						c-1.9,1.3-3,3.4-3,5.6v0.6c0.1,1.2,0.4,2.3,1,3.3c0.2,0.4,0.1,0.9-0.3,1.1c-0.1,0.1-0.3,0.1-0.4,0.1c-0.1,0-0.2,0.1-0.2,0.2
						c0,0,0,0,0,0c0.2,1.8,1,3.5,2.3,4.8c1.5,1.5,3.5,2.4,5.6,2.3h0.4c1.8,0,3.5-0.6,4.9-1.7c1.9-1.2,3-3.3,3-5.6V171.7z
						 M297.5,170.9v-10.4l0,0c0-0.4-0.3-0.8-0.8-0.8h-15.1c-0.4,0-0.8,0.3-0.8,0.8v10.4c0,4.6,3.7,8.3,8.3,8.3
						C293.7,179.2,297.5,175.5,297.5,170.9C297.5,170.9,297.5,170.9,297.5,170.9L297.5,170.9z M313.5,159.8c3.3,0,6,2.7,6,6v12.7
						l0,0c0,0.4-0.3,0.8-0.8,0.8h-18c-0.4,0-0.8-0.3-0.8-0.8v-18l0,0c0-0.4,0.3-0.8,0.8-0.8h6.8c0.4,0,0.8,0.3,0.8,0.8v0.7l0,0
						c0,0.3,0.2,0.5,0.5,0.5c0.2,0,0.3-0.1,0.4-0.2c0.4-0.4,0.8-0.8,1.2-1.1C311.4,160,312.5,159.7,313.5,159.8L313.5,159.8z
						 M354.2,166.8v5l0,0c0,0.4,0.3,0.7,0.7,0.7l0,0l0,0c0.4,0,0.7,0.3,0.7,0.7c0,0,0,0,0,0v5.3l0,0c0,0.4-0.3,0.8-0.8,0.8h-13.1
						c-0.4,0-0.8-0.3-0.8-0.8v-17.9l0,0c0-0.4,0.3-0.8,0.8-0.8h10.1c0.4,0,0.8,0.3,0.8,0.8v4.6l0,0c0,0.4,0.3,0.8,0.8,0.8h0.1
						C353.8,166,354.2,166.3,354.2,166.8L354.2,166.8z M373.4,160.5v8.6l0,0c0,0.4-0.3,0.8-0.8,0.8h-0.9c-0.4,0-0.8,0.3-0.8,0.8v7.9
						l0,0c0,0.4-0.3,0.8-0.8,0.8h-10.8c-0.4,0-0.8-0.3-0.8-0.8v-7.9l0,0c0-0.4-0.3-0.8-0.8-0.8h-0.9c-0.4,0-0.8-0.3-0.8-0.8v-8.6
						l0,0c0-0.4,0.3-0.8,0.8-0.8h15.7C373,159.7,373.4,160.1,373.4,160.5C373.4,160.5,373.4,160.5,373.4,160.5L373.4,160.5z"/>
					<path id="Sunset-Copy-2-2" class="st19" d="M335.5,168.4c-0.1-1.2-0.4-2.3-1-3.3c-0.2-0.4-0.1-0.9,0.3-1.1
						c0.1-0.1,0.2-0.1,0.4-0.1c0.1,0,0.2-0.1,0.2-0.2c0,0,0,0,0,0c-0.2-1.8-1-3.5-2.3-4.8c-1.5-1.5-3.5-2.3-5.6-2.3h-0.5
						c-1.8,0-3.5,0.6-4.9,1.7c-1.9,1.3-3,3.4-3,5.6v0.6c0.1,1.2,0.4,2.3,1,3.3c0.2,0.4,0.1,0.9-0.3,1.1c-0.1,0.1-0.3,0.1-0.4,0.1
						c-0.1,0-0.2,0.1-0.2,0.2c0,0,0,0,0,0c0.2,1.8,1,3.5,2.3,4.8c1.5,1.5,3.5,2.4,5.6,2.3h0.4c1.8,0,3.5-0.6,4.9-1.7
						c1.9-1.2,3-3.3,3-5.6L335.5,168.4z M275.6,168.4c-0.1-1.2-0.4-2.3-1-3.3c-0.2-0.4-0.1-0.9,0.3-1.1c0.1-0.1,0.2-0.1,0.4-0.1
						c0.1,0,0.2-0.1,0.2-0.2c0,0,0,0,0,0c-0.2-1.8-1-3.5-2.3-4.8c-1.5-1.5-3.5-2.3-5.6-2.3h-0.5c-1.8,0-3.5,0.6-4.9,1.7
						c-1.9,1.3-3,3.4-3,5.6v0.6c0.1,1.2,0.4,2.3,1,3.3c0.2,0.4,0.1,0.9-0.3,1.1c-0.1,0.1-0.3,0.1-0.4,0.1c-0.1,0-0.2,0.1-0.2,0.2
						c0,0,0,0,0,0c0.2,1.8,1,3.5,2.3,4.8c1.5,1.5,3.5,2.4,5.6,2.3h0.4c1.8,0,3.5-0.6,4.9-1.7c1.9-1.2,3-3.3,3-5.6L275.6,168.4z
						 M294.8,167.7v-10.4l0,0c0-0.4-0.3-0.8-0.8-0.8h-15.1c-0.4,0-0.8,0.3-0.8,0.8v10.4c0,4.6,3.7,8.3,8.3,8.3
						C291,176,294.8,172.3,294.8,167.7C294.8,167.7,294.8,167.7,294.8,167.7L294.8,167.7z M310.8,156.5c3.3,0,6,2.7,6,6v12.7l0,0
						c0,0.4-0.3,0.8-0.8,0.8h-18c-0.4,0-0.8-0.3-0.8-0.8v-18l0,0c0-0.4,0.3-0.8,0.8-0.8h6.8c0.4,0,0.8,0.3,0.8,0.8v0.8l0,0
						c0,0.3,0.2,0.5,0.5,0.5c0.2,0,0.3-0.1,0.4-0.2c0.4-0.4,0.8-0.8,1.2-1.1C308.7,156.8,309.7,156.5,310.8,156.5L310.8,156.5z
						 M350.5,163.3v4.8l0,0c0,0.4,0.3,0.7,0.7,0.7l0,0l0,0c0.4,0,0.7,0.3,0.7,0.7v5.1l0,0c0,0.4-0.3,0.7-0.7,0.7h-12.5l0,0
						c-0.4,0-0.7-0.3-0.7-0.7v-17l0,0c0-0.4,0.3-0.7,0.7-0.7h9.6l0,0c0.4,0,0.7,0.3,0.7,0.7v4.4l0,0c0,0.4,0.3,0.7,0.7,0.7h0.1l0,0
						C350.1,162.6,350.5,162.9,350.5,163.3z M370.4,157.5v8.5l0,0c0,0.4-0.3,0.8-0.8,0.8h-0.9l0,0c-0.4,0-0.8,0.3-0.8,0.8v7.8l0,0
						c0,0.4-0.3,0.8-0.8,0.8h-10.7l0,0c-0.4,0-0.8-0.3-0.8-0.8v-7.8l0,0c0-0.4-0.3-0.8-0.8-0.8H354l0,0c-0.4,0-0.8-0.3-0.8-0.8v-8.5
						l0,0c0-0.4,0.3-0.8,0.8-0.8h15.6l0,0C370,156.7,370.4,157.1,370.4,157.5z"/>
				</g>
			</g>
		</g>
	</g>
</g>
</svg>
