<?xml version="1.0" encoding="UTF-8" standalone="no"?>
<svg width="206px" height="44px" viewBox="0 0 206 44" version="1.1" xmlns="http://www.w3.org/2000/svg" xmlns:xlink="http://www.w3.org/1999/xlink">
    <!-- Generator: Sketch 46.2 (44496) - http://www.bohemiancoding.com/sketch -->
    <title>Logo</title>
    <desc>Created with Sketch.</desc>
    <defs>
        <linearGradient x1="0%" y1="50%" x2="102.831729%" y2="50%" id="linearGradient-1">
            <stop stop-color="#F7D10D" offset="0%"></stop>
            <stop stop-color="#F26965" offset="100%"></stop>
        </linearGradient>
    </defs>
    <g id="Page-1" stroke="none" stroke-width="1" fill="none" fill-rule="evenodd">
        <g id="iPhone-SE-Copy-3" transform="translate(-58.000000, -314.000000)">
            <g id="Logo" transform="translate(59.000000, 315.000000)">
                <path d="M139.998281,27.9796335 C139.873409,25.7719314 139.281229,23.7539446 138.219412,21.8204985 C137.667678,20.8185277 138.37021,19.5790406 139.528385,19.5790406 C139.766764,19.5790406 139.958043,19.3697542 139.936863,19.1310501 C139.634971,15.7464388 138.223239,12.8093016 135.678972,10.2866961 C132.788663,7.42077433 129.374283,6 125.383551,6 L124.539656,6 C121.277109,6 118.286789,7.05284747 115.515191,9.19128038 C111.968455,11.7792206 110.144828,15.2135376 110.001644,19.5406817 L110.001644,20.3845769 L110,20.5586053 C110.125522,22.6996481 110.729463,24.707866 111.815882,26.5933865 C112.404318,27.6165228 111.669848,28.8618875 110.47154,28.8618875 C110.233364,28.8618875 110.042569,29.0706534 110.064047,29.3092153 C110.364879,32.6937956 111.776357,35.6304044 114.320953,38.154232 C117.210576,41.0194739 120.650554,42.4409281 124.693092,42.4409281 L125.460269,42.4409281 C128.723663,42.4409281 131.71529,41.3882274 134.505734,39.2347523 C138.035929,36.8013693 139.854935,33.3761724 139.998281,28.9002464 L139.998281,27.9796335 Z M34.9982814,27.9796335 C34.8734086,25.7719314 34.2812294,23.7539446 33.2194121,21.8204985 C32.6676776,20.8185277 33.3702096,19.5790406 34.5283852,19.5790406 C34.7667641,19.5790406 34.9580433,19.3697542 34.9368634,19.1310501 C34.6349708,15.7464388 33.2232385,12.8093016 30.678972,10.2866961 C27.7886633,7.42077433 24.3742831,6 20.3835513,6 L19.5396561,6 C16.2771087,6 13.2867886,7.05284747 10.5151913,9.19128038 C6.96845514,11.7792206 5.14482774,15.2135376 5.00164379,19.5406817 L5.00164379,20.3845769 L5,20.5586053 C5.12552177,22.6996481 5.72946344,24.707866 6.81588203,26.5933865 C7.40431792,27.6165228 6.66984837,28.8618875 5.47153996,28.8618875 C5.23336432,28.8618875 5.04256858,29.0706534 5.06404711,29.3092153 C5.36487874,32.6937956 6.77635713,35.6304044 9.32095316,38.154232 C12.2105763,41.0194739 15.6505536,42.4409281 19.6930916,42.4409281 L20.4602691,42.4409281 C23.7236633,42.4409281 26.7152896,41.3882274 29.5057341,39.2347523 C33.0359288,36.8013693 34.8549349,33.3761724 34.9982814,28.9002464 L34.9982814,27.9796335 Z M68.504,26.592 L68.504,7.42 L68.504,7.42 C68.504,6.63575566 67.8682443,6 67.084,6 L39.252,6 L39.252,6 C38.4677557,6 37.832,6.63575566 37.832,7.42 L37.832,26.592 C37.832,30.8640214 39.331985,34.499985 42.332,37.5 C45.332015,40.500015 48.9439789,42 53.168,42 C57.3920211,42 61.003985,40.4880151 64.004,37.464 C67.004015,34.4399849 68.504,30.8160211 68.504,26.592 Z M96.296,6 C99.3200151,6 101.923989,7.0799892 104.108,9.24 C106.292011,11.4000108 107.384,14.0159846 107.384,17.088 L107.384,40.58 L107.384,40.58 C107.384,41.3642443 106.748244,42 105.964,42 L72.804,42 L72.804,42 C72.0197557,42 71.384,41.3642443 71.384,40.58 L71.384,7.42 L71.384,7.42 C71.384,6.63575566 72.0197557,6 72.804,6 L85.3,6 L85.3,6 C86.0842443,6 86.72,6.63575566 86.72,7.42 L86.72,8.772 L86.72,8.772 C86.72,9.32475204 87.1680941,9.77284611 87.7208461,9.77284611 C87.9994741,9.77284611 88.2654903,9.65669727 88.4548929,9.45234418 C89.2794191,8.56273882 90.0331207,7.91595675 90.716,7.512 C92.4200085,6.50399496 94.2799899,6 96.296,6 Z M167.576,18.94 L167.576,28.176 L167.576,28.176 C167.576,28.891761 168.156239,29.472 168.872,29.472 L168.872,29.472 L168.872,29.472 C169.587761,29.472 170.168,30.052239 170.168,30.768 L170.168,40.58 L170.168,40.58 C170.168,41.3642443 169.532244,42 168.748,42 L144.516,42 L144.516,42 C143.731756,42 143.096,41.3642443 143.096,40.58 L143.096,7.564 L143.096,7.564 C143.096,6.77975566 143.731756,6.144 144.516,6.144 L163.132,6.144 L163.132,6.144 C163.916244,6.144 164.552,6.77975566 164.552,7.564 L164.552,16.1 L164.552,16.1 C164.552,16.8842443 165.187756,17.52 165.972,17.52 L166.156,17.52 L166.156,17.52 C166.940244,17.52 167.576,18.1557557 167.576,18.94 Z M204.872,7.42 L204.872,23.228 L204.872,23.228 C204.872,24.0122443 204.236244,24.648 203.452,24.648 L201.756,24.648 L201.756,24.648 C200.971756,24.648 200.336,25.2837557 200.336,26.068 L200.336,40.58 L200.336,40.58 C200.336,41.3642443 199.700244,42 198.916,42 L179.004,42 L179.004,42 C178.219756,42 177.584,41.3642443 177.584,40.58 L177.584,26.068 L177.584,26.068 C177.584,25.2837557 176.948244,24.648 176.164,24.648 L174.468,24.648 L174.468,24.648 C173.683756,24.648 173.048,24.0122443 173.048,23.228 L173.048,7.42 L173.048,7.42 C173.048,6.63575566 173.683756,6 174.468,6 L203.452,6 L203.452,6 C204.236244,6 204.872,6.63575566 204.872,7.42 Z" id="Sunset-Copy" fill="url(#linearGradient-1)"></path>
                <path d="M134.998281,21.9796335 C134.873409,19.7719314 134.281229,17.7539446 133.219412,15.8204985 C132.667678,14.8185277 133.37021,13.5790406 134.528385,13.5790406 C134.766764,13.5790406 134.958043,13.3697542 134.936863,13.1310501 C134.634971,9.74643877 133.223239,6.80930157 130.678972,4.28669612 C127.788663,1.42077433 124.374283,1.13686838e-13 120.383551,1.13686838e-13 L119.539656,1.13686838e-13 C116.277109,1.13686838e-13 113.286789,1.05284747 110.515191,3.19128038 C106.968455,5.77922061 105.144828,9.21353756 105.001644,13.5406817 L105.001644,14.3845769 L105,14.5586053 C105.125522,16.6996481 105.729463,18.707866 106.815882,20.5933865 C107.404318,21.6165228 106.669848,22.8618875 105.47154,22.8618875 C105.233364,22.8618875 105.042569,23.0706534 105.064047,23.3092153 C105.364879,26.6937956 106.776357,29.6304044 109.320953,32.154232 C112.210576,35.0194739 115.650554,36.4409281 119.693092,36.4409281 L120.460269,36.4409281 C123.723663,36.4409281 126.71529,35.3882274 129.505734,33.2347523 C133.035929,30.8013693 134.854935,27.3761724 134.998281,22.9002464 L134.998281,21.9796335 Z M29.9982814,21.9796335 C29.8734086,19.7719314 29.2812294,17.7539446 28.2194121,15.8204985 C27.6676776,14.8185277 28.3702096,13.5790406 29.5283852,13.5790406 C29.7667641,13.5790406 29.9580433,13.3697542 29.9368634,13.1310501 C29.6349708,9.74643877 28.2232385,6.80930157 25.678972,4.28669612 C22.7886633,1.42077433 19.3742831,0 15.3835513,0 L14.5396561,0 C11.2771087,0 8.28678861,1.05284747 5.51519129,3.19128038 C1.96845514,5.77922061 0.144827736,9.21353756 0.00164378684,13.5406817 L0.00164378684,14.3845769 L0,14.5586053 C0.125521772,16.6996481 0.729463441,18.707866 1.81588203,20.5933865 C2.40431792,21.6165228 1.66984837,22.8618875 0.471539965,22.8618875 C0.233364317,22.8618875 0.0425685823,23.0706534 0.0640471103,23.3092153 C0.364878736,26.6937956 1.77635713,29.6304044 4.32095316,32.154232 C7.2105763,35.0194739 10.6505536,36.4409281 14.6930916,36.4409281 L15.4602691,36.4409281 C18.7236633,36.4409281 21.7152896,35.3882274 24.5057341,33.2347523 C28.0359288,30.8013693 29.8549349,27.3761724 29.9982814,22.9002464 L29.9982814,21.9796335 Z M63.504,20.592 L63.504,1.42 L63.504,1.42 C63.504,0.635755655 62.8682443,1.8543381e-15 62.084,1.99840144e-15 L34.252,0 L34.252,-2.22044605e-16 C33.4677557,-7.79812559e-17 32.832,0.635755655 32.832,1.42 L32.832,20.592 C32.832,24.8640214 34.331985,28.499985 37.332,31.5 C40.332015,34.500015 43.9439789,36 48.168,36 C52.3920211,36 56.003985,34.4880151 59.004,31.464 C62.004015,28.4399849 63.504,24.8160211 63.504,20.592 Z M91.296,-2.39808173e-14 C94.3200151,-2.39808173e-14 96.9239891,1.0799892 99.108,3.24 C101.292011,5.4000108 102.384,8.01598464 102.384,11.088 L102.384,34.58 L102.384,34.58 C102.384,35.3642443 101.748244,36 100.964,36 L67.804,36 L67.804,36 C67.0197557,36 66.384,35.3642443 66.384,34.58 L66.384,1.42 L66.384,1.42 C66.384,0.635755655 67.0197557,-2.29485755e-14 67.804,-2.30926389e-14 L80.3,-2.39808173e-14 L80.3,-2.39808173e-14 C81.0842443,-2.55179721e-14 81.72,0.635755655 81.72,1.42 L81.72,2.772 L81.72,2.772 C81.72,3.32475204 82.1680941,3.77284611 82.7208461,3.77284611 C82.9994741,3.77284611 83.2654903,3.65669727 83.4548929,3.45234418 C84.2794191,2.56273882 85.0331207,1.91595675 85.716,1.512 C87.4200085,0.50399496 89.2799899,-2.39808173e-14 91.296,-2.39808173e-14 Z M162.576,12.94 L162.576,22.176 L162.576,22.176 C162.576,22.891761 163.156239,23.472 163.872,23.472 L163.872,23.472 L163.872,23.472 C164.587761,23.472 165.168,24.052239 165.168,24.768 L165.168,34.58 L165.168,34.58 C165.168,35.3642443 164.532244,36 163.748,36 L139.516,36 L139.516,36 C138.731756,36 138.096,35.3642443 138.096,34.58 L138.096,1.564 L138.096,1.564 C138.096,0.779755655 138.731756,0.144 139.516,0.144 L158.132,0.144 L158.132,0.144 C158.916244,0.144 159.552,0.779755655 159.552,1.564 L159.552,10.1 L159.552,10.1 C159.552,10.8842443 160.187756,11.52 160.972,11.52 L161.156,11.52 L161.156,11.52 C161.940244,11.52 162.576,12.1557557 162.576,12.94 Z M199.872,1.42 L199.872,17.228 L199.872,17.228 C199.872,18.0122443 199.236244,18.648 198.452,18.648 L196.756,18.648 L196.756,18.648 C195.971756,18.648 195.336,19.2837557 195.336,20.068 L195.336,34.58 L195.336,34.58 C195.336,35.3642443 194.700244,36 193.916,36 L174.004,36 L174.004,36 C173.219756,36 172.584,35.3642443 172.584,34.58 L172.584,20.068 L172.584,20.068 C172.584,19.2837557 171.948244,18.648 171.164,18.648 L169.468,18.648 L169.468,18.648 C168.683756,18.648 168.048,18.0122443 168.048,17.228 L168.048,1.42 L168.048,1.42 C168.048,0.635755655 168.683756,1.44063349e-16 169.468,0 L198.452,0 L198.452,0 C199.236244,-1.44063349e-16 199.872,0.635755655 199.872,1.42 Z" id="Sunset-Copy-2" stroke="#1A1A1A" stroke-width="2"></path>
            </g>
        </g>
    </g>
</svg>